<?xml version="1.0" encoding="UTF-8"?>
<!DOCTYPE svg PUBLIC "-//W3C//DTD SVG 1.1//EN" "http://www.w3.org/Graphics/SVG/1.1/DTD/svg11.dtd">
<!-- Creator: CorelDRAW 2020 (64-Bit) -->
<svg xmlns="http://www.w3.org/2000/svg" xml:space="preserve" width="534px" height="534px" version="1.1" shape-rendering="geometricPrecision" text-rendering="geometricPrecision" image-rendering="optimizeQuality" fill-rule="evenodd" clip-rule="evenodd"
viewBox="0 0 9450 9450"
 xmlns:xlink="http://www.w3.org/1999/xlink"
 xmlns:xodm="http://www.corel.com/coreldraw/odm/2003">
 <g id="Layer_x0020_1">
  <metadata id="CorelCorpID_0Corel-Layer"/>
  <path fill="black" fill-rule="nonzero" d="M3010 6430l4280 0 0 -120 -1110 -1110 -1620 800 -1550 0 0 430zm640 -2650l-640 320 0 1480 1450 0 1810 -910 1020 1030 0 -1100 -1070 -1080 -1020 1030 -1550 -770zm4070 640l0 2440 -5140 0 0 -3020 1070 -540 1460 730 1110 -1110 1500 1500zm-5570 2870l5570 0 0 430 -5990 0 0 -5990 420 0 0 5560z"/>
 </g>
</svg>
