<svg xmlns="http://www.w3.org/2000/svg" xml:space="preserve" width="534" height="534" shape-rendering="geometricPrecision" fill-rule="evenodd" clip-rule="evenodd" viewBox="0 0 17410 17410"><path d="M2100 14060c3690 0 6530-1880 8760-4680 950-1200 1750-2520 2460-3870 290-560 570-1130 840-1700 200-440 400-890 620-1320 150-300 510-420 800-280 300 150 420 510 280 810-210 430-410 870-620 1300-270 590-550 1170-850 1740-750 1430-1590 2810-2590 4060-2460 3100-5640 5140-9700 5140-340 0-610-270-610-600s270-600 610-600z"/></svg>