<svg xmlns="http://www.w3.org/2000/svg" xml:space="preserve" width="534" height="534" shape-rendering="geometricPrecision" fill-rule="evenodd" clip-rule="evenodd" viewBox="0 0 17410 17410"><path d="M15320 3350c-3690 0-6540 1880-8770 4690-950 1200-1750 2510-2450 3870-300 560-570 1130-840 1700-210 440-410 880-620 1320-150 290-510 420-810 270s-420-510-270-800c210-430 410-870 610-1300 280-590 560-1170 860-1750 740-1420 1580-2800 2580-4060 2460-3100 5640-5140 9710-5140 330 0 600 270 600 600s-270 600-600 600z"/></svg>