<svg xmlns="http://www.w3.org/2000/svg" xml:space="preserve" width="534" height="534" fill-rule="evenodd" clip-rule="evenodd" shape-rendering="geometricPrecision" viewBox="0 0 41900 41900"><path fill-opacity=".2" d="M4340 6310c11090 5920 22140 5900 33220 0 260-140 580-80 770 140 200 220 220 540 50 780-6360 9130-5680 18230 20 27470 150 250 120 570-90 780s-520 250-770 100c-11040-6590-22070-6400-33180 0-260 150-590 100-790-130-200-240-210-570-20-810 7200-9160 7230-18220 0-27380-190-230-180-560 10-790 190-240 520-300 780-160z"/><path d="M4040 6870c11280 6020 22550 6000 33820 0-6540 9390-5790 18770 0 28160-10970-6550-22240-6660-33820 0 7390-9380 7420-18770 0-28160zm340-620c11060 5910 22080 5880 33150 0 290-160 640-90 860 150 220 250 240 600 50 870-6340 9100-5660 18180 20 27390 170 280 130 630-100 870-230 230-580 280-860 110-11020-6580-22020-6380-33100 0-300 170-670 110-890-150-220-250-230-630-20-890 7180-9140 7210-18160 0-27290-210-270-200-630 10-890 220-260 580-330 880-170z"/></svg>