<?xml version="1.0" encoding="UTF-8"?>
<!DOCTYPE svg PUBLIC "-//W3C//DTD SVG 1.1//EN" "http://www.w3.org/Graphics/SVG/1.1/DTD/svg11.dtd">
<!-- Creator: CorelDRAW 2020 (64-Bit) -->
<svg xmlns="http://www.w3.org/2000/svg" xml:space="preserve" width="534px" height="534px" version="1.1" shape-rendering="geometricPrecision" text-rendering="geometricPrecision" image-rendering="optimizeQuality" fill-rule="evenodd" clip-rule="evenodd"
viewBox="0 0 78880 78880"
 xmlns:xlink="http://www.w3.org/1999/xlink"
 xmlns:xodm="http://www.corel.com/coreldraw/odm/2003">
 <g id="Layer_x0020_1">
  <metadata id="CorelCorpID_0Corel-Layer"/>
  <g id="_2353083776176">
   <path fill="black" d="M59660 16110c1060,280 720,400 1270,1430l3060 5300c690,1210 3740,6020 4030,7290 -1240,0 -1330,140 -2190,240 -840,100 -1810,10 -2670,20 -1240,30 -1140,200 -2160,280 -850,70 -1820,-60 -2680,10 -1010,80 -910,250 -2150,270 -7130,160 -6520,1900 1550,-11380 620,-1020 1740,-2600 1940,-3460zm-11320 9710c-100,-370 -2820,-6200 -4590,-6200 -1300,0 -14090,7770 -15090,8370l-5130 2950c120,1430 690,2890 810,4320 1100,-260 5500,-2920 7000,-3790l11600 -6730 6930 12220c720,1320 1900,2770 2240,4230l-5610 3290c-670,410 -1210,660 -1890,1080l-5620 3270c-1060,570 -1070,300 -1710,1260 1290,110 4010,1350 5120,1350 950,0 4590,-2220 5720,-2910l8210 -4740c2460,-1650 -170,-4450 -2330,-8530 890,0 1830,30 2710,10 1300,-30 1220,-230 2410,-290l12970 -780c1430,-280 810,-390 1870,-1100 0,-2470 -1340,-4210 -3020,-6960 -1200,-1960 -2180,-3790 -3370,-5800l-4040 -7010c-1440,-2590 -1690,-3690 -3600,-3690 -1590,0 -2140,1570 -3280,3450l-7300 11850c-480,800 10,610 -1010,880z"/>
   <path fill="black" d="M4920 27980c0,9500 14050,17030 21310,21290l9810 4210c2270,890 4560,1480 7070,2110 5020,1270 19520,3470 19520,-4690 0,-1830 -610,-3110 -1260,-4410 -430,-870 -520,-1130 -1090,-1870 -490,-640 -950,-1030 -1160,-1810l-540 0c-110,1370 -800,1130 -800,2160 0,260 8210,9440 -5400,9440 -2800,0 -5200,-480 -7660,-970l-7010 -1890c-3950,-1380 -10230,-4090 -13750,-6200l-4210 -2540c-860,-580 -1670,-1070 -2580,-1730 -3180,-2300 -4600,-3660 -7060,-6420 -5050,-5680 -3710,-9920 4250,-9920l3500 0 0 -2430c-3640,0 -12940,-620 -12940,5670z"/>
   <path fill="black" d="M28650 59800l-1890 -3780c-1020,240 -4560,2410 -5390,2970 -270,-1000 -4140,-7290 -4850,-8630l-3680 -6310c-140,-230 -470,-840 -490,-1070l130 -870c50,-470 -1930,-1510 -2970,-3080 -1330,710 -3290,1710 -2370,3690l9870 17130c1610,2630 2230,5340 5120,3680l6520 -3730z"/>
   <path fill="black" d="M19210 21240c0,6760 330,8360 1600,14580 330,1620 1360,6940 2710,7800 1020,660 1460,1000 2430,1080 -810,-1540 -1100,-3180 -1710,-5030 -1960,-5900 -4770,-20660 -880,-26420 1630,-2410 4310,-1240 6050,-60 2030,1380 2350,1950 3890,3660 440,490 740,960 1170,1530 670,900 1720,2080 2000,3130 3720,-310 1630,-2410 0,-4590 -2080,-2790 -5960,-7550 -9710,-7550 -3030,0 -4720,1070 -6050,4200 -920,2160 -1500,4720 -1500,7670z"/>
   <path fill="black" d="M41870 69510c5790,0 7280,-6350 7280,-11330l-2160 -270c0,12390 -7280,11250 -13590,1730l-4690 -7720c-280,-230 -2590,-1190 -3020,-1290 1030,1950 1310,3220 2850,5770 1330,2220 1720,3230 3420,5480 620,830 1200,1720 1880,2440 1890,2010 4970,5190 8030,5190z"/>
   <path fill="black" d="M13820 36610l3510 2960c890,-600 1800,-1020 2690,-1610 -1610,-3370 620,-5350 -2970,-3250l-3230 1900z"/>
   <path fill="black" d="M22720 25550c730,350 3010,860 4020,1140 1660,460 2060,-750 3530,-1140 -770,-1060 -6260,-2130 -7550,-2430l0 2430z"/>
   <path fill="black" d="M33240 57100c1260,-670 2670,-1320 3230,-2160 -940,-70 -4350,-1470 -5120,-1880 150,1760 1480,2530 1890,4040z"/>
   <path fill="black" d="M46720 50900l0 1350c590,280 1550,520 2430,540 0,-1500 -250,-1800 -270,-2970 -660,180 -1530,750 -2160,1080z"/>
  </g>
 </g> 
</svg>
