<svg xmlns="http://www.w3.org/2000/svg" xml:space="preserve" width="534" height="534" shape-rendering="geometricPrecision" fill-rule="evenodd" clip-rule="evenodd" viewBox="0 0 78880 78880"><path fill-rule="nonzero" d="M28570 27900c-290-90-1420-410-2030-570-660-180-1750-440-2150-520l-80-20-10-50c-20-160-80-1100-90-1570-10-180-20-380-20-440 0-80 0-100 10-100s170 30 360 70c1940 430 3880 970 5940 1650l560 190-50 20c-30 20-570 330-1200 700-640 360-1160 660-1170 660s-40-10-70-20zm-9660 11340c-990-740-1860-1450-2690-2190l-200-180 30-20c380-230 4650-2680 4660-2670 0 10 30 120 50 260 170 880 450 2140 710 3240 50 220 90 400 90 410-20 10-2340 1350-2360 1360-10 0-140-90-290-210zm7880 5020c-830-460-2400-1350-2440-1390-10-10-200-590-330-1030-1710-5500-2750-10890-2990-15640-40-810-50-1160-50-2100 0-1430 50-2430 190-3590 250-2120 730-3880 1440-5250 390-770 800-1350 1320-1870 430-420 810-710 1290-960 1560-810 3390-650 5380 470 2430 1370 5100 4260 7620 8230 240 390 570 940 570 940-20 20-1810 1040-1810 1040-10 0-60-80-120-180-330-540-940-1460-1330-2020-1830-2620-3700-4590-5420-5710-940-610-1820-970-2620-1070-210-20-580-20-770 10-920 120-1670 660-2280 1680-600 990-1050 2430-1300 4170-110 740-170 1460-230 2440-20 420-20 2400 0 2880 90 1920 250 3510 560 5500 450 2970 1190 6220 2130 9330 370 1260 940 2970 1330 4040 40 100 70 180 60 180 0 0-90-40-200-100zm31440-12780c4190-260 7620-470 7640-470s-370-700-3800-6620c-2100-3640-3820-6620-3830-6620 0 0-1860 3000-4120 6670l-4130 6660 250 430 240 420 70-10c40 0 3500-210 7680-460zM42230 50420c-970-250-1830-500-2760-790-430-140-1940-630-1970-650-20-10 2080-1230 5470-3180 790-460 8310-4800 8310-4800s-440-770-980-1710c-1360-2350-6890-11940-7340-12710-200-350-360-630-370-630 0 0-2920 1680-6490 3740-10840 6260-10320 5960-10330 5950s-230-980-390-1710c-170-810-440-2200-430-2210s400-240 1680-980c580-330 4370-2520 8420-4860 4650-2680 7420-4270 7500-4310 720-300 1550-140 2110 420 50 60 140 150 180 210s360 600 710 1210 900 1560 1220 2110 680 1190 810 1410 240 400 240 400c10 0 2000-3220 4440-7160 2430-3940 4450-7200 4490-7260 90-120 280-320 400-410 340-250 730-380 1160-380 630 0 1220 320 1570 830 100 150 10850 18760 10930 18940 70 140 130 300 170 480 40 190 40 540 0 730-90 390-250 700-530 980-300 300-650 480-1060 540-60 10-3840 240-8390 520-4550 270-8290 500-8320 500l-60 10 20 40c10 30 680 1190 1490 2580 810 1400 1480 2580 1510 2630 60 140 120 310 140 480 40 210 30 540-20 740-60 240-140 440-280 660-100 150-350 390-490 490-90 60-7910 4580-10430 6030-240 140-800 460-1250 720-480 280-810 460-830 460s-130-30-250-60zm5780 1120c-440-60-950-130-1360-190-130-20-260-40-290-50-60-10-50 50-100-480-20-220-50-480-60-590-20-110-20-200-20-210 10-10 1790-1030 1810-1040s30 50 110 800c70 580 170 1630 170 1750 0 40 0 40-260 10zm2690 3800c-6410-260-14780-2740-22800-6750-7640-3810-13950-8520-17350-12910-1440-1870-2330-3670-2600-5270-70-430-80-560-80-1070 0-490 10-590 70-940 170-940 610-1770 1280-2450 440-430 940-780 1550-1090 1820-910 4410-1260 7690-1060 260 10 560 40 1130 90l90 10v290c0 320 20 1250 40 1620l10 240-170-20c-1290-120-2730-160-3810-80-2230 140-3880 650-4900 1500-130 110-350 330-440 450-340 420-530 890-590 1420-20 200-10 670 20 880 230 1500 1230 3260 2970 5260 490 560 1450 1530 2050 2090 720 670 1490 1340 2270 1960 3820 3060 8690 5990 13950 8370 7520 3410 15160 5380 20580 5310 980-10 1740-70 2510-200 1610-260 2820-780 3570-1500 490-470 760-980 850-1630 30-180 30-600 10-800-150-1320-940-2880-2320-4620l-180-220 150-150c280-280 480-550 650-900 100-190 230-550 230-610 0-20 10-30 10-20 30 10 460 530 710 850 970 1260 1660 2420 2110 3540 320 810 510 1540 580 2320 30 210 30 800 0 1000-80 830-320 1540-750 2180-890 1340-2520 2240-4820 2660-610 110-1230 180-2010 230-350 30-1840 40-2260 20zm-16970-100c-330-520-680-1120-1020-1710-310-530-750-1350-750-1370 0 0 40-30 100-60l90-60 370 160c1230 510 2630 1050 3910 1500 230 80 300 110 290 120s-640 370-1390 810c-760 440-1400 800-1420 810l-40 30-140-230zm-11720 6620c-220-30-510-130-690-240-320-180-540-410-750-760-740-1280-10580-18340-10630-18420-300-610-250-1350 150-1930 90-140 330-380 460-470 90-60 1370-810 1410-820 10-10 140 110 300 270 750 740 1550 1460 2480 2240 150 120 200 170 190 180s-150 90-320 190c-160 90-310 180-320 190s740 1330 8620 14970l50 90 2390-1380c1310-750 2380-1370 2390-1370 0 0 50 90 110 210 480 910 1280 2350 1690 3010l60 100c0 20-6230 3610-6460 3740-280 140-510 200-830 200-110 10-250 0-300 0zm19690 5090c-360-30-640-70-960-150-1930-480-4050-2010-6210-4470-2630-3000-5240-7320-7470-12350-80-180-140-340-150-350-10-20 130 40 610 280 680 340 1270 630 1890 920l400 180 250 500c2310 4660 4910 8420 7410 10740 740 690 1410 1210 2090 1620 1200 720 2300 1020 3210 860 990-170 1790-870 2410-2120 710-1410 1140-3450 1270-5990 10-150 10-280 20-280 0 0 110 20 240 40 520 80 1510 210 1600 210 20 0 30 10 40 10 10 20-40 670-80 1120-280 3100-1050 5520-2250 7110-280 370-650 760-950 1020-750 610-1530 960-2450 1080-140 20-790 40-920 20z"/></svg>