<?xml version="1.0" encoding="UTF-8"?>
<!DOCTYPE svg PUBLIC "-//W3C//DTD SVG 1.1//EN" "http://www.w3.org/Graphics/SVG/1.1/DTD/svg11.dtd">
<!-- Creator: CorelDRAW 2020 (64-Bit) -->
<svg xmlns="http://www.w3.org/2000/svg" xml:space="preserve" width="534px" height="534px" version="1.1" shape-rendering="geometricPrecision" text-rendering="geometricPrecision" image-rendering="optimizeQuality" fill-rule="evenodd" clip-rule="evenodd"
viewBox="0 0 41900 41900"
 xmlns:xlink="http://www.w3.org/1999/xlink"
 xmlns:xodm="http://www.corel.com/coreldraw/odm/2003">
 <g id="Layer_x0020_1">
  <metadata id="CorelCorpID_0Corel-Layer"/>
  <path fill="black" fill-rule="nonzero" d="M20950 36140c-1400,0 -2750,-170 -4040,-540 -1290,-350 -2500,-860 -3630,-1520 -1130,-660 -2160,-1450 -3080,-2380 -920,-920 -1720,-1950 -2380,-3080 -660,-1120 -1160,-2330 -1520,-3630 -360,-1290 -540,-2640 -540,-4040 0,-1400 180,-2750 540,-4040 360,-1290 860,-2500 1520,-3630 660,-1130 1460,-2160 2380,-3080 920,-920 1950,-1720 3080,-2380 1130,-660 2340,-1160 3630,-1520 1290,-360 2640,-540 4040,-540 1400,0 2750,180 4040,540 1300,360 2510,860 3630,1520 1130,660 2160,1460 3080,2380 930,920 1720,1950 2380,3080 660,1130 1170,2340 1520,3630 370,1290 540,2640 540,4040 0,1400 -170,2750 -540,4040 -350,1300 -860,2510 -1520,3630 -660,1130 -1450,2160 -2380,3080 -920,930 -1950,1720 -3080,2380 -1120,660 -2330,1170 -3630,1520 -1290,370 -2640,540 -4040,540zm0 -28350c-1210,0 -2380,150 -3500,470 -1110,310 -2160,760 -3140,1330 -970,570 -1860,1250 -2660,2060 -810,800 -1490,1690 -2060,2660 -570,980 -1020,2030 -1330,3150 -320,1120 -470,2290 -470,3490 0,1200 150,2370 470,3490 310,1130 760,2180 1330,3150 570,980 1250,1870 2060,2670 800,800 1690,1490 2660,2050 980,570 2030,1020 3140,1330 1120,320 2290,480 3500,480 1200,0 2370,-160 3490,-480 1130,-310 2180,-760 3150,-1330 980,-560 1870,-1250 2670,-2050 800,-800 1490,-1690 2050,-2670 570,-970 1020,-2020 1330,-3140 320,-1120 480,-2290 480,-3500 0,-1200 -160,-2370 -480,-3490 -310,-1120 -760,-2170 -1330,-3150 -560,-970 -1250,-1860 -2050,-2660 -800,-810 -1690,-1490 -2670,-2060 -970,-570 -2020,-1020 -3150,-1330 -1120,-320 -2290,-470 -3490,-470zm-1010 10120l2020 0 0 10130 -2020 0 0 -10130zm0 -4050l2020 0 0 2030 -2020 0 0 -2030z"/>
 </g>
</svg>
