<svg xmlns="http://www.w3.org/2000/svg" xml:space="preserve" width="534" height="534" shape-rendering="geometricPrecision" fill-rule="evenodd" clip-rule="evenodd" viewBox="0 0 18620 18620"><path d="M9390 3150c210 10 410 90 570 250l5300 5310c340 330 340 870 0 1210l-5300 5310c-160 150-360 240-570 240V3150zM2380 8600l6220-6220c390-390 1030-390 1420 0l6220 6220c390 390 390 1030 0 1420l-6220 6220c-390 390-1030 390-1420 0l-6220-6220c-390-390-390-1030 0-1420zm-910-90 7040-7040c440-440 1160-440 1610 0l7040 7040c440 440 440 1160 0 1610l-7040 7040c-450 440-1170 440-1610 0l-7040-7040c-440-450-440-1170 0-1610z"/></svg>