<svg xmlns="http://www.w3.org/2000/svg" xml:space="preserve" width="534" height="534" shape-rendering="geometricPrecision" fill-rule="evenodd" clip-rule="evenodd" viewBox="0 0 36240 36240"><path fill-rule="nonzero" d="M12280 6720c-4310 2210-6990 6580-6990 11430 0 880 110 1780 310 2670l11090-10090c-1190-1070-4290-3900-4410-4010zm11130-280c-1670-760-3450-1150-5290-1150-1300 0-2590 220-3830 620l9120 8300V6440zm1950 1140v14800h4860c480-1370 730-2790 730-4230 0-4230-2120-8190-5590-10570zM6220 22900c940 2360 2590 4390 4690 5840V18630l-2850 2590c-970 890-1780 1630-1840 1680zm6640 6970c1310 590 2670 950 4080 1080h2350c4210-390 7990-2880 10040-6620H12860v5540z"/></svg>