<svg xmlns="http://www.w3.org/2000/svg" xml:space="preserve" width="534" height="534" fill-rule="evenodd" clip-rule="evenodd" image-rendering="optimizeQuality" shape-rendering="geometricPrecision" text-rendering="geometricPrecision" viewBox="0 0 2579 2579"><path d="M929 1571c28,-18 196,-38 315,-217 96,-144 83,-269 84,-442 0,-56 10,-122 -27,-148 -33,-23 -114,-14 -161,-15 -3,-38 -1,-90 -1,-129 0,-55 11,-196 -18,-237 -43,-60 -124,-56 -165,1 -21,31 -16,69 -16,111 0,85 0,170 0,255 -52,0 -193,6 -234,-2 -4,-82 0,-175 0,-257 0,-44 4,-78 -19,-110 -38,-53 -124,-59 -165,6 -22,34 -16,65 -16,108 -1,82 -3,174 0,255 -71,2 -189,-24 -190,76l0 262c4,145 73,272 168,360 60,56 130,93 231,120 16,216 -42,360 153,552 123,121 348,165 528,61 39,-22 74,-51 100,-76 154,-156 116,-303 139,-387 14,-53 35,-77 65,-110 74,-81 179,-70 283,-70 56,1 119,3 175,0 120,-6 135,-152 54,-197 -40,-23 -107,-16 -159,-15 -210,1 -332,-21 -495,120 -43,37 -81,97 -107,154 -20,42 -31,90 -35,142 -5,61 -2,94 -28,146 -62,131 -226,183 -348,100 -93,-64 -111,-138 -111,-242 0,-58 -1,-117 0,-175z"/></svg>