<svg xmlns="http://www.w3.org/2000/svg" xml:space="preserve" width="534" height="534" shape-rendering="geometricPrecision" fill-rule="evenodd" clip-rule="evenodd" viewBox="0 0 23530 23530"><path fill-rule="nonzero" d="M11760 20290c-780 0-1540-100-2270-300-720-200-1400-490-2030-860-640-370-1210-810-1730-1330s-970-1100-1340-1730-650-1310-850-2040c-210-720-310-1480-310-2270 0-780 100-1540 310-2270 200-720 480-1400 850-2030 370-640 820-1210 1340-1730s1090-970 1730-1340c630-370 1310-650 2030-850 730-210 1490-310 2270-310 790 0 1550 100 2270 310 730 200 1410 480 2040 850s1210 820 1730 1340 960 1090 1330 1730c370 630 660 1310 860 2030 200 730 300 1490 300 2270 0 790-100 1550-300 2270-200 730-490 1410-860 2040s-810 1210-1330 1730-1100 960-1730 1330-1310 660-2040 860c-720 200-1480 300-2270 300zm0-15920c-680 0-1330 90-1960 270-630 170-1220 430-1770 740-540 320-1040 710-1490 1160s-840 950-1160 1490c-310 550-570 1140-740 1770-180 630-270 1290-270 1960 0 680 90 1330 270 1960 170 630 430 1220 740 1770 320 550 710 1050 1160 1500s950 830 1490 1150c550 320 1140 570 1770 750s1280 260 1960 260 1330-80 1960-260 1220-430 1770-750 1050-700 1500-1150 830-950 1150-1500 570-1140 750-1760c180-630 260-1290 260-1970 0-670-80-1330-260-1960s-430-1220-750-1770c-320-540-700-1040-1150-1490s-950-840-1500-1160c-550-310-1140-570-1770-740-630-180-1280-270-1960-270zm-810 9420c0-410 90-790 260-1140 180-350 390-650 640-900s500-490 750-720c250-220 460-470 640-740 170-280 260-570 260-870 0-460-160-820-480-1060-310-250-730-370-1240-370-1010 0-1660 450-1950 1350l-1100-610c230-650 630-1140 1180-1480 560-340 1180-510 1890-510 820 0 1520 230 2110 700 590 460 880 1100 880 1920 0 390-90 760-260 1100-180 340-390 640-640 890s-500 490-750 720c-250 240-460 500-640 790-170 300-260 600-260 930h-1290zm640 2990c-250 0-460-90-640-260-170-180-260-390-260-640s90-460 260-640c180-170 390-260 640-260 260 0 470 90 640 260 170 180 260 390 260 640s-90 460-260 640c-170 170-380 260-640 260z"/></svg>