<svg xmlns="http://www.w3.org/2000/svg" xml:space="preserve" width="534" height="534" shape-rendering="geometricPrecision" fill-rule="evenodd" clip-rule="evenodd" viewBox="0 0 18620 18620"><path fill-rule="nonzero" d="m4390 4970 1720-2120h2750L7140 4970H4390zm4470 0 1720-2120h2750l-1720 2120H8860zm4470 0 1720-2120h520c410 0 740 330 740 730v6690l-1490-710V4970h-1490zm-2820 10430H2150c-410 0-740-330-740-740V3580c10-400 340-730 740-730h2240L2900 4570v9340h7610v1490zM4430 6640h9050v1340h-1950l-1020-490v490H4430V6640zm0 2190h6080v1330H4430V8830zm8870 0h180v80l-180-80zm-8870 2180h6080v1340H4430v-1340zm13420 920-6450 3090V8840l6450 3090z"/></svg>