<svg xmlns="http://www.w3.org/2000/svg" xml:space="preserve" width="534" height="534" shape-rendering="geometricPrecision" fill-rule="evenodd" clip-rule="evenodd" viewBox="0 0 16860 16860"><path fill-rule="nonzero" d="m4000 4320 1700-2110h2730L6720 4320H4000zm4430 0 1700-2110h2720l-1700 2110H8430zm4420 0 1710-2110h510c410 0 730 330 730 730v10970c0 410-320 730-730 740H1780c-400 0-730-330-730-740V2940c0-400 330-730 730-730h2220L2530 3920v9250h11800V4320h-1480zM4040 5970h8960v1320H4040V5970zm0 2170h8960v1320H4040V8140zm0 2160h8960v1320H4040v-1320z"/></svg>