<svg xmlns="http://www.w3.org/2000/svg" xml:space="preserve" width="534" height="534" shape-rendering="geometricPrecision" fill-rule="evenodd" clip-rule="evenodd" viewBox="0 0 28530 28530"><path d="M14810 26080h440c2860 0 6010-1370 8110-3230l670-650c500-550 750-610 340-1290l-3250-5570c-350-640-780-1060-1290-180-150 240-260 430-390 670-140 250-270 440-390 680l-2680 4620v80c0 1810-580 3490-1560 4870zM1820 12660c0 1130 30 1830 160 2610 1530-1530 3640-2480 5970-2480 150 0 300 0 450 10l-160-280c-150-270-280-480-420-740-140-270-260-450-410-710-140-260-280-490-420-740L4860 6630c-190-360-300-560-710-560-420 0-710 820-960 1260-270 500-450 1000-660 1570-350 930-710 2480-710 3760zm11500-5520c0 390 260 600 660 600h11600c510 0 660-260 660-660 0-220-550-1020-690-1230-1300-1960-3080-3400-5170-4460-590-290-2240-940-3010-940-310 0-450 330-640 670-160 310-320 570-500 870-340 580-2910 4900-2910 5150zM5070 4700c0 300 1640 3050 1910 3510 440 730 1350 2420 1740 3020 270 410 730 360 1070-230l2350-4040c80-140 110-220 200-350 80-140 130-210 210-350 320-600 3100-5210 3100-5510 0-440-230-570-550-600h-760c-2600 0-5670 1210-7560 2770-170 140-300 250-480 390-240 190-1230 1130-1230 1390zm13880 4560c0 390 280 770 560 1220l1790 3070c210 350 380 670 590 1020 110 180 200 340 300 510l1510 2590c400 700 780 1350 1190 2060 280 480 720 430 980 110 500-620 1300-2740 1460-3400 250-990 390-1910 430-2820v-1070c-50-1040-230-2080-550-3200-100-370-270-590-720-590h-6890c-330 0-650 170-650 500zM7170 16590c430 0 780 360 780 790v3830l2680 2680c310 300 310 800 0 1110-300 300-800 300-1110 0l-2910-2910c-140-140-210-320-230-500v-4210c0-430 350-790 790-790zm780-1360c3300 0 5980 2670 5980 5980 0 3300-2680 5970-5980 5970s-5980-2670-5980-5970c0-3310 2680-5980 5980-5980zm0-1200c3970 0 7180 3210 7180 7180 0 3960-3210 7180-7180 7180-3960 0-7180-3220-7180-7180 0-3970 3220-7180 7180-7180z"/></svg>