<?xml version="1.0" encoding="UTF-8"?>
<!DOCTYPE svg PUBLIC "-//W3C//DTD SVG 1.1//EN" "http://www.w3.org/Graphics/SVG/1.1/DTD/svg11.dtd">
<!-- Creator: CorelDRAW 2020 (64-Bit) -->
<svg xmlns="http://www.w3.org/2000/svg" xml:space="preserve" width="534px" height="534px" version="1.1" shape-rendering="geometricPrecision" text-rendering="geometricPrecision" image-rendering="optimizeQuality" fill-rule="evenodd" clip-rule="evenodd"
viewBox="0 0 42100 42100"
 xmlns:xlink="http://www.w3.org/1999/xlink"
 xmlns:xodm="http://www.corel.com/coreldraw/odm/2003">
 <g id="Layer_x0020_1">
  <metadata id="CorelCorpID_0Corel-Layer"/>
  <path fill="#2B2B2A" fill-rule="nonzero" d="M32490 9600l-1900 0 0 11450 -19080 0 0 -11450 -1910 0 0 20590 2300 2300 1520 0 0 -7630 13350 0 0 7630 5720 0 0 -22890zm-7630 17170l-9530 0 0 5720 1900 0 0 -3810 1910 0 0 3810 5720 0 0 -5720zm-11440 -7630l15260 0 0 -9540 -15260 0 0 9540zm19070 -11450c270,0 520,60 750,150 230,100 430,240 600,410 180,180 310,380 410,610 100,220 150,470 150,740l0 24800 -23290 0 -3420 -3430 0 -21370c0,-270 60,-520 150,-740 100,-230 240,-430 410,-610 180,-170 380,-310 610,-410 220,-90 470,-150 740,-150l22890 0z"/>
 </g>
</svg>
