<svg xmlns="http://www.w3.org/2000/svg" xml:space="preserve" width="534" height="534" shape-rendering="geometricPrecision" fill-rule="evenodd" clip-rule="evenodd" viewBox="0 0 42100 42100"><path fill-rule="nonzero" d="M32490 9600h-1900v11450H11510V9600H9600v20590l2300 2300h1520v-7630h13350v7630h5720V9600zm-7630 17170h-9530v5720h1900v-3810h1910v3810h5720v-5720zm-11440-7630h15260V9600H13420v9540zM32490 7690c270 0 520 60 750 150 230 100 430 240 600 410 180 180 310 380 410 610 100 220 150 470 150 740v24800H11110l-3420-3430V9600c0-270 60-520 150-740 100-230 240-430 410-610 180-170 380-310 610-410 220-90 470-150 740-150h22890z"/></svg>