<?xml version="1.0" encoding="UTF-8"?>
<!DOCTYPE svg PUBLIC "-//W3C//DTD SVG 1.1//EN" "http://www.w3.org/Graphics/SVG/1.1/DTD/svg11.dtd">
<!-- Creator: CorelDRAW 2020 (64-Bit) -->
<svg xmlns="http://www.w3.org/2000/svg" xml:space="preserve" width="534px" height="534px" version="1.1" shape-rendering="geometricPrecision" text-rendering="geometricPrecision" image-rendering="optimizeQuality" fill-rule="evenodd" clip-rule="evenodd"
viewBox="0 0 21790 21790"
 xmlns:xlink="http://www.w3.org/1999/xlink"
 xmlns:xodm="http://www.corel.com/coreldraw/odm/2003">
 <g id="Layer_x0020_1">
  <metadata id="CorelCorpID_0Corel-Layer"/>
  <path fill="#2B2B2A" fill-rule="nonzero" d="M13370 12870c610,0 1190,-110 1730,-350 540,-230 1010,-550 1410,-950 400,-400 720,-870 950,-1410 230,-540 350,-1120 350,-1730 0,-610 -120,-1190 -350,-1730 -230,-540 -550,-1010 -950,-1410 -400,-400 -870,-720 -1410,-960 -540,-230 -1120,-350 -1730,-350 -620,0 -1190,120 -1730,350 -540,240 -1010,560 -1410,960 -400,400 -720,870 -960,1410 -230,540 -350,1120 -350,1730 0,610 120,1190 350,1730 240,540 560,1010 960,1410 400,400 870,720 1410,950 540,240 1110,350 1730,350zm0 -9870c500,0 980,60 1440,190 460,130 890,310 1300,550 400,230 760,520 1090,850 340,330 620,700 860,1100 240,400 420,830 550,1300 130,460 190,940 190,1440 0,500 -60,980 -190,1440 -130,460 -310,900 -550,1300 -240,400 -520,760 -860,1100 -330,330 -690,610 -1090,850 -410,240 -840,420 -1300,550 -460,130 -940,190 -1440,190 -650,0 -1260,-110 -1850,-320 -590,-220 -1130,-530 -1630,-940l-6050 6050c-100,100 -220,150 -350,150 -130,0 -250,-50 -350,-150 -90,-100 -140,-210 -140,-350 0,-130 50,-240 140,-340l6050 -6060c-410,-490 -720,-1030 -930,-1620 -220,-590 -330,-1210 -330,-1850 0,-500 70,-980 200,-1440 130,-470 310,-900 540,-1300 240,-400 530,-770 860,-1100 330,-330 700,-620 1100,-850 400,-240 830,-420 1290,-550 470,-130 950,-190 1450,-190z"/>
 </g>
</svg>
