<svg xmlns="http://www.w3.org/2000/svg" xml:space="preserve" width="534" height="534" shape-rendering="geometricPrecision" fill-rule="evenodd" clip-rule="evenodd" viewBox="0 0 21790 21790"><path fill-rule="nonzero" d="M13370 12870c610 0 1190-110 1730-350 540-230 1010-550 1410-950s720-870 950-1410 350-1120 350-1730-120-1190-350-1730-550-1010-950-1410-870-720-1410-960c-540-230-1120-350-1730-350-620 0-1190 120-1730 350-540 240-1010 560-1410 960s-720 870-960 1410c-230 540-350 1120-350 1730s120 1190 350 1730c240 540 560 1010 960 1410s870 720 1410 950c540 240 1110 350 1730 350zm0-9870c500 0 980 60 1440 190s890 310 1300 550c400 230 760 520 1090 850 340 330 620 700 860 1100s420 830 550 1300c130 460 190 940 190 1440s-60 980-190 1440-310 900-550 1300-520 760-860 1100c-330 330-690 610-1090 850-410 240-840 420-1300 550s-940 190-1440 190c-650 0-1260-110-1850-320-590-220-1130-530-1630-940l-6050 6050c-100 100-220 150-350 150s-250-50-350-150c-90-100-140-210-140-350 0-130 50-240 140-340l6050-6060c-410-490-720-1030-930-1620-220-590-330-1210-330-1850 0-500 70-980 200-1440 130-470 310-900 540-1300 240-400 530-770 860-1100s700-620 1100-850c400-240 830-420 1290-550 470-130 950-190 1450-190z"/></svg>