<svg xmlns="http://www.w3.org/2000/svg" xml:space="preserve" width="534" height="534" shape-rendering="geometricPrecision" fill-rule="evenodd" clip-rule="evenodd" viewBox="0 0 26030 26030"><path fill-rule="nonzero" d="M13020 15450c330 0 650-70 950-190 290-130 550-300 770-520s390-480 520-770c120-300 190-620 190-950 0-340-70-660-190-950-130-300-300-560-520-780s-480-390-770-520c-300-120-620-190-950-190-340 0-660 70-950 190-300 130-560 300-780 520s-390 480-520 780c-120 290-190 610-190 950 0 330 70 650 190 950 130 290 300 550 520 770s480 390 780 520c290 120 610 190 950 190zm0-5900c470 0 920 90 1340 270 430 180 790 430 1110 740 310 320 560 680 740 1110 180 420 270 870 270 1350 0 470-90 920-270 1340-180 430-430 790-740 1110-320 310-680 560-1110 740-420 180-870 270-1340 270-480 0-930-90-1350-270-430-180-790-430-1110-740-310-320-560-680-740-1110-180-420-270-870-270-1340 0-480 90-930 270-1350 180-430 430-790 740-1110 320-310 680-560 1110-740 420-180 870-270 1350-270zm5910 4330c10-150 30-290 40-440 10-140 20-290 20-430 0-150-10-290-20-440s-30-290-40-430l2180-1350-800-1920-2490 580c-190-230-390-450-590-650-200-190-410-390-650-580l580-2500-1910-800-1370 2180c-140-10-280-30-430-40s-290-20-430-20c-150 0-300 10-440 20-150 10-290 30-440 40l-1350-2180-1920 800 580 2500c-230 180-450 380-650 580-190 200-390 420-580 650l-2500-580-800 1920 2180 1360c-10 140-30 290-40 440-10 140-20 290-20 430 0 150 10 290 20 440 10 140 30 290 40 430l-2180 1360 800 1910 2500-580c180 240 380 450 580 650 200 190 420 390 650 590l-580 2490 1920 800 1360-2180c140 10 280 30 430 40s290 20 440 20c140 0 290-10 430-20 150-10 290-30 440-40l1360 2180 1910-800-580-2490c240-190 450-390 650-590 190-200 390-410 590-650l2490 580 800-1910-2180-1370zm1080-1190v160c10 60 10 110 10 170 0 50 0 110-10 160v170l2390 1480-1470 3530-2730-630c-150 160-310 320-470 460l630 2740-3530 1470-1480-2390h-170c-50 10-110 10-160 10-60 0-110 0-170-10h-160l-1490 2390-3530-1470 630-2740c-160-140-320-300-460-460l-2740 630-1460-3530 2380-1480v-170c-10-50-10-110-10-160 0-60 0-110 10-170v-160l-2380-1490 1460-3530 2740 630c140-160 300-320 460-470l-630-2730 3530-1460 1490 2380h160c60-10 110-10 170-10 50 0 110 0 160 10h170l1480-2380 3530 1460-630 2730c160 150 320 310 470 470l2730-630 1470 3530-2390 1490z"/></svg>