<svg xmlns="http://www.w3.org/2000/svg" xml:space="preserve" width="534" height="534" shape-rendering="geometricPrecision" fill-rule="evenodd" clip-rule="evenodd" viewBox="0 0 60530 60530"><path fill-rule="nonzero" d="m22040 18500-6280 6280h-4700v10970h4700l6280 6280V18500zm790-4690h1950v32920h-1930l-8250-8230H8320V22040h6280l8230-8230zm9710 8700c1040 1040 1840 2230 2390 3560 540 1320 820 2730 820 4200s-280 2870-820 4200c-550 1330-1350 2510-2390 3550l-1930-1920c770-780 1360-1660 1780-2670 410-1010 620-2070 620-3160 0-1100-210-2150-620-3160-420-1010-1010-1900-1780-2670l1930-1930zm11440 7760c0 2570-480 5020-1450 7350-980 2320-2360 4400-4170 6230l-1940-1950c1560-1550 2750-3330 3580-5340 820-1990 1240-4090 1240-6290 0-2210-420-4300-1240-6300-830-2010-2020-3780-3580-5340l1940-1950c1810 1830 3190 3910 4170 6230 970 2330 1450 4780 1450 7360zm190-19400c1290 1280 2430 2680 3430 4180 1010 1500 1850 3070 2520 4710 680 1650 1200 3350 1560 5130 360 1770 530 3560 530 5380 0 1830-170 3620-530 5390-360 1760-880 3470-1560 5110-670 1640-1510 3210-2520 4710-1000 1500-2140 2900-3430 4180l-1940-1950c1150-1150 2180-2410 3080-3760s1660-2760 2270-4240c620-1480 1080-3010 1400-4600 310-1590 470-3200 470-4840 0-1650-160-3260-470-4850-320-1580-780-3110-1400-4600-610-1470-1370-2890-2270-4240s-1930-2600-3080-3760l1940-1950z"/></svg>