<?xml version="1.0" encoding="UTF-8"?>
<!DOCTYPE svg PUBLIC "-//W3C//DTD SVG 1.1//EN" "http://www.w3.org/Graphics/SVG/1.1/DTD/svg11.dtd">
<!-- Creator: CorelDRAW 2020 (64-Bit) -->
<svg xmlns="http://www.w3.org/2000/svg" xml:space="preserve" width="534px" height="534px" version="1.1" shape-rendering="geometricPrecision" text-rendering="geometricPrecision" image-rendering="optimizeQuality" fill-rule="evenodd" clip-rule="evenodd"
viewBox="0 0 60530 60530"
 xmlns:xlink="http://www.w3.org/1999/xlink"
 xmlns:xodm="http://www.corel.com/coreldraw/odm/2003">
 <g id="Layer_x0020_1">
  <metadata id="CorelCorpID_0Corel-Layer"/>
  <path fill="#2B2B2A" fill-rule="nonzero" d="M22040 18500l-6280 6280 -4700 0 0 10970 4700 0 6280 6280 0 -23530zm790 -4690l1950 0 0 32920 -1930 0 -8250 -8230 -6280 0 0 -16460 6280 0 8230 -8230zm9710 8700c1040,1040 1840,2230 2390,3560 540,1320 820,2730 820,4200 0,1470 -280,2870 -820,4200 -550,1330 -1350,2510 -2390,3550l-1930 -1920c770,-780 1360,-1660 1780,-2670 410,-1010 620,-2070 620,-3160 0,-1100 -210,-2150 -620,-3160 -420,-1010 -1010,-1900 -1780,-2670l1930 -1930zm11440 7760c0,2570 -480,5020 -1450,7350 -980,2320 -2360,4400 -4170,6230l-1940 -1950c1560,-1550 2750,-3330 3580,-5340 820,-1990 1240,-4090 1240,-6290 0,-2210 -420,-4300 -1240,-6300 -830,-2010 -2020,-3780 -3580,-5340l1940 -1950c1810,1830 3190,3910 4170,6230 970,2330 1450,4780 1450,7360zm190 -19400c1290,1280 2430,2680 3430,4180 1010,1500 1850,3070 2520,4710 680,1650 1200,3350 1560,5130 360,1770 530,3560 530,5380 0,1830 -170,3620 -530,5390 -360,1760 -880,3470 -1560,5110 -670,1640 -1510,3210 -2520,4710 -1000,1500 -2140,2900 -3430,4180l-1940 -1950c1150,-1150 2180,-2410 3080,-3760 900,-1350 1660,-2760 2270,-4240 620,-1480 1080,-3010 1400,-4600 310,-1590 470,-3200 470,-4840 0,-1650 -160,-3260 -470,-4850 -320,-1580 -780,-3110 -1400,-4600 -610,-1470 -1370,-2890 -2270,-4240 -900,-1350 -1930,-2600 -3080,-3760l1940 -1950z"/>
 </g>
</svg>
