<?xml version="1.0" encoding="UTF-8"?>
<!DOCTYPE svg PUBLIC "-//W3C//DTD SVG 1.1//EN" "http://www.w3.org/Graphics/SVG/1.1/DTD/svg11.dtd">
<!-- Creator: CorelDRAW 2020 (64-Bit) -->
<svg xmlns="http://www.w3.org/2000/svg" xml:space="preserve" width="534px" height="534px" version="1.1" shape-rendering="geometricPrecision" text-rendering="geometricPrecision" image-rendering="optimizeQuality" fill-rule="evenodd" clip-rule="evenodd"
viewBox="0 0 49160 49160"
 xmlns:xlink="http://www.w3.org/1999/xlink"
 xmlns:xodm="http://www.corel.com/coreldraw/odm/2003">
 <g id="Layer_x0020_1">
  <metadata id="CorelCorpID_0Corel-Layer"/>
  <path fill="#2B2B2A" fill-rule="nonzero" d="M35240 24580l4760 4790 -1560 1560 -4790 -4770 -4780 4770 -1570 -1560 4770 -4790 -4770 -4790 1570 -1560 4780 4760 4790 -4760 1560 1560 -4760 4790zm-14950 -9550l-5100 5090 -3810 0 0 8910 3810 0 5100 5100 0 -19100zm640 -3820l1590 0 0 26730 -1590 0 -6680 -6680 -5100 0 0 -13360 5100 0 6680 -6690z"/>
 </g>
</svg>
