<svg xmlns="http://www.w3.org/2000/svg" xml:space="preserve" width="531" height="90" shape-rendering="geometricPrecision" fill-rule="evenodd" clip-rule="evenodd" viewBox="0 0 77.96 13.28"><path fill="#f3a913" d="m70.98 0 1.64 5.08 5.34-.01-4.33 3.14 1.66 5.07-4.31-3.14-4.32 3.14 1.66-5.07-4.33-3.14 5.35.01L70.98 0zm-16 0 1.64 5.08 5.34-.01-4.32 3.14 1.66 5.07-4.32-3.14-4.32 3.14 1.66-5.07L48 5.07l5.34.01L54.98 0zm-16 0 1.64 5.08 5.35-.01-4.33 3.14 1.66 5.07-4.32-3.14-4.32 3.14 1.67-5.07L32 5.07l5.34.01L38.98 0zm-16 0 1.64 5.08 5.35-.01-4.33 3.14 1.66 5.07-4.32-3.14-4.31 3.14 1.66-5.07L16 5.07l5.34.01L22.98 0zm-16 0 1.64 5.08 5.35-.01-4.33 3.14 1.66 5.07-4.32-3.14-4.31 3.14 1.66-5.07L0 5.07l5.34.01L6.98 0z"/></svg>