<?xml version="1.0" encoding="UTF-8"?>
<!DOCTYPE svg PUBLIC "-//W3C//DTD SVG 1.1//EN" "http://www.w3.org/Graphics/SVG/1.1/DTD/svg11.dtd">
<!-- Creator: CorelDRAW 2020 (64-Bit) -->
<svg xmlns="http://www.w3.org/2000/svg" xml:space="preserve" width="534px" height="534px" version="1.1" shape-rendering="geometricPrecision" text-rendering="geometricPrecision" image-rendering="optimizeQuality" fill-rule="evenodd" clip-rule="evenodd"
viewBox="0 0 9150 9150"
 xmlns:xlink="http://www.w3.org/1999/xlink"
 xmlns:xodm="http://www.corel.com/coreldraw/odm/2003">
 <g id="Layer_x0020_1">
  <metadata id="CorelCorpID_0Corel-Layer"/>
  <path fill="black" fill-rule="nonzero" d="M7340 2360l0 1660 -1660 0 0 -550 810 0c-90,-170 -210,-320 -350,-460 -140,-130 -290,-250 -460,-350 -160,-90 -340,-170 -530,-220 -180,-50 -380,-80 -570,-80 -260,0 -510,50 -750,130 -230,80 -440,200 -630,350 -200,160 -360,340 -490,550 -140,210 -230,440 -290,690l-540 -120c70,-310 190,-600 360,-860 170,-270 370,-490 610,-680 240,-190 510,-340 800,-450 300,-100 610,-160 930,-160 290,0 570,50 850,130 270,90 520,220 760,390 120,80 220,170 320,270 100,100 190,200 280,310l0 10 0 -560 550 0zm-2760 4430c260,0 500,-40 740,-130 230,-80 450,-200 640,-350 190,-150 350,-330 490,-540 130,-220 230,-450 290,-700l530 120c-70,320 -190,610 -360,870 -160,260 -370,490 -610,680 -240,190 -500,340 -800,440 -290,110 -600,160 -920,160 -300,0 -580,-40 -850,-130 -270,-90 -530,-220 -770,-390 -110,-80 -220,-170 -320,-270 -90,-90 -180,-200 -270,-310l-10 0 0 550 -550 0 0 -1660 1660 0 0 550 -810 0c100,170 220,330 360,460 130,140 280,250 450,350 170,100 340,170 530,220 190,60 380,80 580,80z"/>
 </g>
</svg>
