<svg xmlns="http://www.w3.org/2000/svg" xml:space="preserve" width="534" height="534" shape-rendering="geometricPrecision" fill-rule="evenodd" clip-rule="evenodd" viewBox="0 0 9150 9150"><path fill-rule="nonzero" d="M7340 2360v1660H5680v-550h810c-90-170-210-320-350-460-140-130-290-250-460-350-160-90-340-170-530-220-180-50-380-80-570-80-260 0-510 50-750 130-230 80-440 200-630 350-200 160-360 340-490 550-140 210-230 440-290 690l-540-120c70-310 190-600 360-860 170-270 370-490 610-680s510-340 800-450c300-100 610-160 930-160 290 0 570 50 850 130 270 90 520 220 760 390 120 80 220 170 320 270s190 200 280 310v10-560h550zM4580 6790c260 0 500-40 740-130 230-80 450-200 640-350s350-330 490-540c130-220 230-450 290-700l530 120c-70 320-190 610-360 870-160 260-370 490-610 680s-500 340-800 440c-290 110-600 160-920 160-300 0-580-40-850-130s-530-220-770-390c-110-80-220-170-320-270-90-90-180-200-270-310h-10v550h-550V5130h1660v550h-810c100 170 220 330 360 460 130 140 280 250 450 350s340 170 530 220c190 60 380 80 580 80z"/></svg>