<?xml version="1.0" encoding="UTF-8"?>
<!DOCTYPE svg PUBLIC "-//W3C//DTD SVG 1.1//EN" "http://www.w3.org/Graphics/SVG/1.1/DTD/svg11.dtd">
<!-- Creator: CorelDRAW 2020 (64-Bit) -->
<svg xmlns="http://www.w3.org/2000/svg" xml:space="preserve" width="534px" height="534px" version="1.1" shape-rendering="geometricPrecision" text-rendering="geometricPrecision" image-rendering="optimizeQuality" fill-rule="evenodd" clip-rule="evenodd"
viewBox="0 0 28130 28130"
 xmlns:xlink="http://www.w3.org/1999/xlink"
 xmlns:xodm="http://www.corel.com/coreldraw/odm/2003">
 <g id="Layer_x0020_1">
  <metadata id="CorelCorpID_0Corel-Layer"/>
  <path fill="black" fill-rule="nonzero" d="M20390 10530l6580 -4610c110,-80 240,-120 370,-120 350,0 630,280 630,630 0,0 0,0 0,0l0 15270c0,0 0,0 0,0 0,350 -280,630 -630,630 -130,0 -260,-40 -370,-110l-6580 -4610 0 4460c0,690 -570,1260 -1270,1260l-17690 0c-700,0 -1260,-570 -1260,-1260l0 -16000c0,-700 560,-1260 1260,-1260l17690 0c700,0 1270,560 1270,1260l0 4460zm6030 9540l20 -12260 -6030 4400 0 3640 6010 4220zm-24160 -13170l0 14330 16030 0 0 -14330 -16030 0z"/>
 </g>
</svg>
