<svg xmlns="http://www.w3.org/2000/svg" xml:space="preserve" width="534" height="534" shape-rendering="geometricPrecision" fill-rule="evenodd" clip-rule="evenodd" viewBox="0 0 28130 28130"><path fill-rule="nonzero" d="m20390 10530 6580-4610c110-80 240-120 370-120 350 0 630 280 630 630v15270c0 350-280 630-630 630-130 0-260-40-370-110l-6580-4610v4460c0 690-570 1260-1270 1260H1430c-700 0-1260-570-1260-1260V6070c0-700 560-1260 1260-1260h17690c700 0 1270 560 1270 1260v4460zm6030 9540 20-12260-6030 4400v3640l6010 4220zM2260 6900v14330h16030V6900H2260z"/></svg>