<svg xmlns="http://www.w3.org/2000/svg" xml:space="preserve" width="1336" height="1336" shape-rendering="geometricPrecision" fill-rule="evenodd" clip-rule="evenodd" viewBox="0 0 520600 520600"><path d="m294000 66420 189770 343430c7520 13620 7730 29430 560 43280s-19690 21810-34260 21810H70530c-14570 0-27090-7970-34260-21810-7170-13850-6960-29660 560-43280L226600 66420c7330-13260 19510-20770 33700-20770s26370 7510 33700 20770zm-20220 13300c-3050-5520-7570-8310-13480-8310s-10430 2790-13480 8310L57050 423150c-3120 5660-3200 11550-220 17310 2970 5760 7640 8730 13700 8730h379540c6060 0 10730-2970 13700-8730 2980-5760 2910-11650-220-17310L273780 79720zm-13480 266290c11850 0 21460 9610 21460 21470 0 11850-9610 21460-21460 21460s-21460-9610-21460-21460c0-11860 9610-21470 21460-21470zm-170-11470c11800 0 20930-9670 21460-21460 1450-32340 4920-69060 4920-100810 0-14470-11730-26210-26210-26210-15460 0-27480 13270-26110 28580l4470 98440c540 11780 9660 21460 21470 21460z"/></svg>