<?xml version="1.0" encoding="UTF-8" standalone="no"?>
<svg
   xmlns:osb="http://www.openswatchbook.org/uri/2009/osb"
   xmlns:dc="http://purl.org/dc/elements/1.1/"
   xmlns:cc="http://creativecommons.org/ns#"
   xmlns:rdf="http://www.w3.org/1999/02/22-rdf-syntax-ns#"
   xmlns:svg="http://www.w3.org/2000/svg"
   xmlns="http://www.w3.org/2000/svg"
   xmlns:xlink="http://www.w3.org/1999/xlink"
   xmlns:sodipodi="http://sodipodi.sourceforge.net/DTD/sodipodi-0.dtd"
   xmlns:inkscape="http://www.inkscape.org/namespaces/inkscape"
   inkscape:export-ydpi="3846.259"
   inkscape:export-xdpi="3846.259"
   inkscape:export-filename="C:\Users\elvin\Documents\code\smalllogo.png"
   sodipodi:docname="gyroflow logo.svg"
   inkscape:version="1.0 (4035a4fb49, 2020-05-01)"
   id="svg8"
   version="1.1"
   viewBox="0 0 136.16872 29.73469"
   height="29.73469mm"
   width="136.16872mm">
  <defs
     id="defs2">
    <marker
       inkscape:isstock="true"
       style="overflow:visible"
       id="Arrow2Send"
       refX="0"
       refY="0"
       orient="auto"
       inkscape:stockid="Arrow2Send">
      <path
         transform="matrix(-0.3,0,0,-0.3,0.69,0)"
         d="M 8.7185878,4.0337352 -2.2072895,0.01601326 8.7185884,-4.0017078 c -1.7454984,2.3720609 -1.7354408,5.6174519 -6e-7,8.035443 z"
         style="fill:#ff5300;fill-opacity:1;fill-rule:evenodd;stroke:#ff5300;stroke-width:0.625;stroke-linejoin:round;stroke-opacity:1"
         id="path986" />
    </marker>
    <marker
       inkscape:isstock="true"
       style="overflow:visible"
       id="Arrow2Sstart"
       refX="0"
       refY="0"
       orient="auto"
       inkscape:stockid="Arrow2Sstart">
      <path
         transform="matrix(0.3,0,0,0.3,-0.69,0)"
         d="M 8.7185878,4.0337352 -2.2072895,0.01601326 8.7185884,-4.0017078 c -1.7454984,2.3720609 -1.7354408,5.6174519 -6e-7,8.035443 z"
         style="fill:#ff5300;fill-opacity:1;fill-rule:evenodd;stroke:#ff5300;stroke-width:0.625;stroke-linejoin:round;stroke-opacity:1"
         id="path983" />
    </marker>
    <marker
       inkscape:isstock="true"
       style="overflow:visible"
       id="Arrow2Mend"
       refX="0"
       refY="0"
       orient="auto"
       inkscape:stockid="Arrow2Mend">
      <path
         transform="scale(-0.6)"
         d="M 8.7185878,4.0337352 -2.2072895,0.01601326 8.7185884,-4.0017078 c -1.7454984,2.3720609 -1.7354408,5.6174519 -6e-7,8.035443 z"
         style="fill:#ff7a00;fill-opacity:1;fill-rule:evenodd;stroke:#ff7a00;stroke-width:0.625;stroke-linejoin:round;stroke-opacity:1"
         id="path980" />
    </marker>
    <marker
       inkscape:isstock="true"
       style="overflow:visible"
       id="Arrow2Mstart"
       refX="0"
       refY="0"
       orient="auto"
       inkscape:stockid="Arrow2Mstart">
      <path
         transform="scale(0.6)"
         d="M 8.7185878,4.0337352 -2.2072895,0.01601326 8.7185884,-4.0017078 c -1.7454984,2.3720609 -1.7354408,5.6174519 -6e-7,8.035443 z"
         style="fill:#ff7a00;fill-opacity:1;fill-rule:evenodd;stroke:#ff7a00;stroke-width:0.625;stroke-linejoin:round;stroke-opacity:1"
         id="path977" />
    </marker>
    <marker
       inkscape:isstock="true"
       style="overflow:visible"
       id="Arrow2Lend"
       refX="0"
       refY="0"
       orient="auto"
       inkscape:stockid="Arrow2Lend">
      <path
         transform="matrix(-1.1,0,0,-1.1,-1.1,0)"
         d="M 8.7185878,4.0337352 -2.2072895,0.01601326 8.7185884,-4.0017078 c -1.7454984,2.3720609 -1.7354408,5.6174519 -6e-7,8.035443 z"
         style="fill:#000000;fill-opacity:1;fill-rule:evenodd;stroke:#000000;stroke-width:0.625;stroke-linejoin:round;stroke-opacity:1"
         id="path974" />
    </marker>
    <marker
       inkscape:isstock="true"
       style="overflow:visible"
       id="Arrow2Lstart"
       refX="0"
       refY="0"
       orient="auto"
       inkscape:stockid="Arrow2Lstart">
      <path
         transform="matrix(1.1,0,0,1.1,1.1,0)"
         d="M 8.7185878,4.0337352 -2.2072895,0.01601326 8.7185884,-4.0017078 c -1.7454984,2.3720609 -1.7354408,5.6174519 -6e-7,8.035443 z"
         style="fill:#000000;fill-opacity:1;fill-rule:evenodd;stroke:#000000;stroke-width:0.625;stroke-linejoin:round;stroke-opacity:1"
         id="path971" />
    </marker>
    <marker
       inkscape:isstock="true"
       style="overflow:visible"
       id="Arrow1Lstart"
       refX="0"
       refY="0"
       orient="auto"
       inkscape:stockid="Arrow1Lstart">
      <path
         transform="matrix(0.8,0,0,0.8,10,0)"
         style="fill:#000000;fill-opacity:1;fill-rule:evenodd;stroke:#000000;stroke-width:1pt;stroke-opacity:1"
         d="M 0,0 5,-5 -12.5,0 5,5 Z"
         id="path953" />
    </marker>
    <inkscape:path-effect
       effect="spiro"
       id="path-effect916"
       is_visible="true"
       lpeversion="1" />
    <inkscape:path-effect
       lpeversion="1"
       is_visible="true"
       id="path-effect897"
       effect="spiro" />
    <inkscape:path-effect
       effect="spiro"
       id="path-effect878"
       is_visible="true"
       lpeversion="1" />
    <inkscape:path-effect
       lpeversion="1"
       is_visible="true"
       id="path-effect859"
       effect="spiro" />
    <linearGradient
       osb:paint="solid"
       id="linearGradient837">
      <stop
         id="stop835"
         offset="0"
         style="stop-color:#000000;stop-opacity:1;" />
    </linearGradient>
    <linearGradient
       inkscape:collect="always"
       xlink:href="#linearGradient837"
       id="linearGradient1056"
       gradientUnits="userSpaceOnUse"
       gradientTransform="translate(6.9490077,4.0758603)"
       x1="16.386906"
       y1="138.81175"
       x2="40.120537"
       y2="138.81175" />
    <linearGradient
       inkscape:collect="always"
       xlink:href="#linearGradient837"
       id="linearGradient1188"
       gradientUnits="userSpaceOnUse"
       gradientTransform="translate(6.9490077,4.0758603)"
       x1="16.386906"
       y1="138.81175"
       x2="40.120537"
       y2="138.81175" />
  </defs>
  <sodipodi:namedview
     fit-margin-bottom="0"
     fit-margin-right="0"
     fit-margin-left="0"
     fit-margin-top="0"
     inkscape:window-maximized="1"
     inkscape:window-y="-9"
     inkscape:window-x="2391"
     inkscape:window-height="1721"
     inkscape:window-width="3200"
     showgrid="false"
     inkscape:document-rotation="0"
     inkscape:current-layer="layer1"
     inkscape:document-units="mm"
     inkscape:cy="42.845887"
     inkscape:cx="132.90826"
     inkscape:zoom="1.4142136"
     inkscape:pageshadow="2"
     inkscape:pageopacity="0.0"
     borderopacity="1.0"
     bordercolor="#666666"
     pagecolor="#ffffff"
     id="base"
     showguides="true" />
  <metadata
     id="metadata5">
    <rdf:RDF>
      <cc:Work
         rdf:about="">
        <dc:format>image/svg+xml</dc:format>
        <dc:type
           rdf:resource="http://purl.org/dc/dcmitype/StillImage" />
        <dc:title></dc:title>
      </cc:Work>
    </rdf:RDF>
  </metadata>
  <g
     transform="translate(-223.77519,-281.86286)"
     id="layer1"
     inkscape:groupmode="layer"
     inkscape:label="Layer 1">
    <g
       inkscape:export-filename="C:\Users\elvin\Documents\code\gyroflow\largelogo_w400.png"
       inkscape:export-ydpi="74.610001"
       inkscape:export-xdpi="74.610001"
       id="g1323">
      <path
         style="fill:#000000;stroke-width:0.00660426"
         d="m 241.4644,311.48301 c -0.18815,-0.0169 -0.33306,-0.0408 -0.50136,-0.0826 -1.01147,-0.25139 -2.11876,-1.04751 -3.248,-2.33524 -1.3771,-1.57038 -2.73948,-3.82444 -3.90451,-6.45998 -0.0407,-0.0922 -0.0765,-0.17391 -0.0796,-0.18162 -0.004,-0.0108 0.0687,0.023 0.31915,0.14795 0.35455,0.17689 0.66602,0.32756 0.98861,0.47823 l 0.20831,0.0973 0.13013,0.26197 c 1.20886,2.43354 2.56706,4.40223 3.87481,5.6165 0.38807,0.36033 0.73803,0.63058 1.09631,0.84662 0.62401,0.37626 1.19821,0.53019 1.67418,0.44882 0.51982,-0.0889 0.9356,-0.45393 1.26306,-1.109 0.36867,-0.7375 0.59435,-1.80504 0.66248,-3.1337 0.004,-0.0781 0.008,-0.14276 0.009,-0.14373 9.7e-4,-9.7e-4 0.0579,0.007 0.1266,0.0178 0.27456,0.043 0.79122,0.11263 0.83606,0.11269 0.01,0 0.0194,0.003 0.0214,0.006 0.005,0.009 -0.0176,0.35036 -0.0394,0.58527 -0.14996,1.62061 -0.55135,2.88717 -1.17712,3.71425 -0.14658,0.19374 -0.34038,0.40016 -0.50014,0.53271 -0.38909,0.32284 -0.79525,0.50304 -1.28123,0.56844 -0.0697,0.009 -0.41111,0.0176 -0.47881,0.0115 z m -10.29274,-2.66442 c -0.11491,-0.0154 -0.26848,-0.0673 -0.36324,-0.1227 -0.16693,-0.0976 -0.2842,-0.21806 -0.39125,-0.40193 -0.38665,-0.66414 -5.53462,-9.58705 -5.55694,-9.63177 -0.15929,-0.31921 -0.13043,-0.70231 0.0759,-1.0077 0.0489,-0.0724 0.17303,-0.19792 0.24326,-0.24603 0.0442,-0.0303 0.71405,-0.42038 0.73688,-0.42914 0.005,-0.002 0.0709,0.058 0.15549,0.14111 0.39339,0.3867 0.80924,0.76269 1.29716,1.17282 0.0762,0.064 0.1047,0.0917 0.0991,0.0962 -0.004,0.003 -0.0793,0.0471 -0.16643,0.0971 -0.0872,0.05 -0.16245,0.0945 -0.16727,0.099 -0.008,0.008 0.38738,0.69552 4.50582,7.82772 l 0.0276,0.0478 1.24679,-0.71978 c 0.68573,-0.39587 1.24775,-0.71977 1.24892,-0.71977 10e-4,0 0.0281,0.0498 0.0597,0.11062 0.24966,0.4794 0.67061,1.22861 0.88389,1.57316 0.0168,0.0271 0.0303,0.0523 0.0302,0.0561 -3.1e-4,0.008 -3.25461,1.88809 -3.3794,1.95229 -0.14653,0.0754 -0.26324,0.10478 -0.43099,0.10858 -0.0599,10e-4 -0.12978,-3.3e-4 -0.1552,-0.004 z m 6.12571,-3.46212 c -0.17042,-0.2718 -0.35667,-0.58356 -0.53347,-0.89298 -0.15943,-0.27901 -0.39158,-0.70276 -0.39117,-0.71401 1.2e-4,-0.003 0.0225,-0.0186 0.0498,-0.0342 l 0.0496,-0.0283 0.19289,0.0804 c 0.64305,0.26805 1.37453,0.54888 2.04695,0.78587 0.11818,0.0417 0.15475,0.0571 0.1486,0.0626 -0.004,0.004 -0.3321,0.19412 -0.72803,0.42238 -0.39592,0.22826 -0.72884,0.4203 -0.73981,0.42676 l -0.0199,0.0118 z m 8.87257,0.0546 c -3.35195,-0.13684 -7.72614,-1.43155 -11.92214,-3.52881 -3.99133,-1.99496 -7.29356,-4.45386 -9.07037,-6.75395 -0.75455,-0.97676 -1.21834,-1.91677 -1.35943,-2.75528 -0.0379,-0.22519 -0.043,-0.2911 -0.0428,-0.55676 1.6e-4,-0.25607 0.004,-0.31103 0.0367,-0.49202 0.0879,-0.49055 0.31718,-0.92728 0.67278,-1.28122 0.22502,-0.22399 0.48778,-0.40895 0.8092,-0.56961 0.95022,-0.47499 2.3064,-0.66267 4.0187,-0.55615 0.13589,0.008 0.296,0.0212 0.59273,0.047 l 0.0479,0.004 1.7e-4,0.15258 c 1.9e-4,0.16778 0.01,0.65686 0.0171,0.84983 l 0.004,0.12267 -0.0852,-0.008 c -0.67617,-0.0657 -1.42924,-0.0828 -1.9938,-0.0454 -1.16718,0.0773 -2.026,0.34117 -2.55915,0.78634 -0.0685,0.0572 -0.18475,0.17466 -0.23473,0.2372 -0.17346,0.21704 -0.27655,0.46624 -0.30702,0.74213 -0.0115,0.10423 -0.005,0.34755 0.0124,0.45984 0.121,0.78284 0.64282,1.7061 1.5528,2.74738 0.25754,0.29469 0.7557,0.80501 1.07008,1.09618 0.37842,0.35049 0.78289,0.69916 1.18877,1.02478 1.9949,1.60041 4.54252,3.1294 7.29111,4.37587 3.9349,1.78444 7.92779,2.81467 10.76165,2.77666 0.5148,-0.007 0.9102,-0.0383 1.31094,-0.10415 0.84191,-0.13832 1.4797,-0.40575 1.87034,-0.78422 0.25701,-0.24901 0.39635,-0.5156 0.4456,-0.85257 0.0137,-0.0938 0.0153,-0.3146 0.003,-0.41976 -0.0802,-0.68923 -0.4913,-1.50631 -1.21427,-2.41314 l -0.0916,-0.11485 0.08,-0.08 c 0.14465,-0.14457 0.24621,-0.28621 0.33674,-0.46963 0.0505,-0.10234 0.12194,-0.29118 0.122,-0.32251 0,-0.007 0.003,-0.0111 0.006,-0.01 0.0124,0.005 0.23724,0.2783 0.36793,0.44799 0.50605,0.65703 0.86813,1.26356 1.10393,1.84919 0.17062,0.42377 0.26688,0.80452 0.30637,1.21188 0.0107,0.11082 0.0108,0.41881 1.2e-4,0.52504 -0.0437,0.43368 -0.17273,0.80601 -0.39492,1.13924 -0.46751,0.70113 -1.31846,1.17029 -2.52203,1.39046 -0.31485,0.0576 -0.64227,0.0958 -1.05008,0.12262 -0.18266,0.012 -0.96397,0.018 -1.18216,0.009 z m -1.4034,-1.98797 c -0.23482,-0.0294 -0.49766,-0.0662 -0.70996,-0.0995 -0.069,-0.0108 -0.13805,-0.0214 -0.15342,-0.0236 -0.0336,-0.005 -0.0278,0.0218 -0.0549,-0.25318 -0.0113,-0.11441 -0.026,-0.25409 -0.0326,-0.3104 -0.007,-0.0563 -0.0102,-0.10439 -0.008,-0.10687 0.007,-0.008 0.93488,-0.54209 0.9458,-0.54503 0.011,-0.003 0.0155,0.0287 0.0592,0.41745 0.0341,0.3025 0.0857,0.85347 0.0857,0.91412 0,0.0244 0.005,0.0242 -0.13208,0.007 z m -3.02146,-0.58505 c -0.50822,-0.13361 -0.95726,-0.26208 -1.44303,-0.41285 -0.22842,-0.0709 -1.01453,-0.33023 -1.03394,-0.34109 -0.008,-0.005 1.08964,-0.64291 2.85871,-1.66186 0.41524,-0.23917 4.34736,-2.50904 4.34921,-2.51064 0.001,-10e-4 -0.23007,-0.40414 -0.51407,-0.89567 -0.70904,-1.22718 -3.60325,-6.24007 -3.83611,-6.6443 -0.10408,-0.18068 -0.19132,-0.32854 -0.19386,-0.32856 -0.003,0 -1.5301,0.88081 -3.39459,1.95741 -5.6664,3.27193 -5.39541,3.11577 -5.39956,3.11163 -0.008,-0.008 -0.12443,-0.51542 -0.20536,-0.8952 -0.0911,-0.42727 -0.23097,-1.1523 -0.22377,-1.1595 0.004,-0.004 0.20887,-0.12259 0.87681,-0.50817 0.3033,-0.17508 2.28557,-1.31938 4.40504,-2.54288 2.42927,-1.40234 3.87805,-2.23496 3.91977,-2.25272 0.37622,-0.16014 0.80918,-0.0743 1.10036,0.21822 0.0308,0.0309 0.0732,0.0802 0.0943,0.10942 0.0211,0.0293 0.18907,0.31397 0.37334,0.63268 0.18427,0.31871 0.47165,0.81574 0.63861,1.10451 0.16696,0.28877 0.35804,0.6194 0.42462,0.73473 0.0666,0.11532 0.12329,0.20968 0.12603,0.20968 0.003,0 1.04595,-1.68433 2.31824,-3.74296 1.2723,-2.05864 2.3299,-3.76665 2.35024,-3.79558 0.0444,-0.0632 0.1452,-0.16631 0.20794,-0.21277 0.17948,-0.13289 0.38356,-0.20022 0.60687,-0.20022 0.32712,0 0.64043,0.16637 0.82035,0.43562 0.05,0.0748 5.67096,9.80883 5.71685,9.90005 0.0377,0.075 0.0657,0.15677 0.0859,0.25096 0.0214,0.10002 0.0214,0.28304 0,0.38305 -0.0441,0.20605 -0.13127,0.36853 -0.27468,0.51224 -0.1574,0.15773 -0.33886,0.25028 -0.55556,0.28335 -0.033,0.005 -2.00635,0.12683 -4.38523,0.27067 -2.37888,0.14384 -4.33786,0.26312 -4.35327,0.26506 l -0.028,0.004 0.0108,0.0211 c 0.006,0.0116 0.35565,0.6184 0.77715,1.34849 0.42149,0.73008 0.77629,1.34897 0.78846,1.3753 0.0338,0.0731 0.0607,0.16185 0.0757,0.24938 0.0189,0.11023 0.0144,0.2837 -0.01,0.38635 -0.0305,0.12839 -0.075,0.23013 -0.15029,0.34373 -0.0525,0.0791 -0.17946,0.20693 -0.257,0.25866 -0.0432,0.0288 -4.13465,2.39428 -5.45182,3.15195 -0.12713,0.0731 -0.42004,0.24203 -0.6509,0.37532 -0.25473,0.14708 -0.42608,0.24217 -0.43588,0.24189 -0.009,-2.6e-4 -0.0667,-0.0138 -0.12841,-0.03 z m 8.3643,-9.90593 c 2.18849,-0.13235 3.98574,-0.24141 3.99389,-0.24236 0.0133,-0.002 -0.19492,-0.36498 -1.98426,-3.46401 -1.09948,-1.90426 -2.0007,-3.4622 -2.00269,-3.4621 -0.002,1e-4 -0.97339,1.5693 -2.15864,3.4871 l -2.15502,3.48692 0.12751,0.22086 0.1275,0.22086 0.0363,-0.003 c 0.02,-0.002 1.82691,-0.1116 4.01539,-0.24395 z m -16.43801,6.68255 c -0.43815,-0.23831 -1.2564,-0.70194 -1.2803,-0.72545 -0.003,-0.003 -0.10017,-0.3056 -0.1725,-0.53803 -0.89433,-2.87397 -1.43321,-5.69629 -1.56173,-8.17938 -0.0217,-0.42014 -0.0262,-0.60429 -0.0262,-1.09631 -1.4e-4,-0.74968 0.0274,-1.27214 0.099,-1.87891 0.13049,-1.10612 0.38215,-2.02459 0.75186,-2.74407 0.20587,-0.40064 0.42233,-0.70567 0.69392,-0.97785 0.21977,-0.22025 0.42234,-0.37136 0.67234,-0.50153 0.81569,-0.42474 1.77248,-0.34196 2.81157,0.24324 1.27348,0.71721 2.67058,2.22775 3.98368,4.30712 0.12724,0.20149 0.30282,0.4876 0.30036,0.48944 -0.0115,0.009 -0.94392,0.54409 -0.94733,0.54401 -0.003,-6e-5 -0.0299,-0.0409 -0.0604,-0.0908 -0.17454,-0.28485 -0.49052,-0.76575 -0.69531,-1.05821 -0.95989,-1.3708 -1.93536,-2.39833 -2.83524,-2.98654 -0.49201,-0.3216 -0.94976,-0.50771 -1.36958,-0.55682 -0.10875,-0.0127 -0.30219,-0.0125 -0.40167,3.8e-4 -0.4844,0.0629 -0.87291,0.3495 -1.19469,0.88136 -0.31184,0.5154 -0.5477,1.27262 -0.67936,2.18102 -0.0556,0.38356 -0.0904,0.76108 -0.11724,1.27311 -0.0115,0.21922 -0.0115,1.25791 -6e-5,1.50577 0.0465,1.00347 0.13042,1.83835 0.28927,2.87946 0.23648,1.54992 0.62478,3.25128 1.11313,4.87725 0.19785,0.65875 0.49363,1.55289 0.69886,2.11267 0.0185,0.0505 0.0328,0.0924 0.0319,0.0933 -9.8e-4,8.2e-4 -0.0479,-0.0236 -0.10416,-0.0542 z m -4.12436,-2.62153 c -0.5134,-0.38791 -0.97151,-0.7619 -1.40509,-1.14708 l -0.10405,-0.0924 0.0182,-0.011 c 0.19813,-0.11975 2.4283,-1.39987 2.43192,-1.39591 0.003,0.003 0.0161,0.0635 0.0296,0.13437 0.0873,0.46006 0.23118,1.11781 0.371,1.69628 0.0275,0.11385 0.0475,0.20927 0.0444,0.21203 -0.007,0.007 -1.22077,0.70614 -1.23202,0.71032 -0.005,0.002 -0.074,-0.0462 -0.15391,-0.10658 z m 5.05226,-5.92969 c -0.14983,-0.0484 -0.74174,-0.21579 -1.06312,-0.30062 -0.34389,-0.0908 -0.91261,-0.22808 -1.12433,-0.27146 l -0.0411,-0.008 -0.003,-0.0268 c -0.0104,-0.0822 -0.0402,-0.57403 -0.0496,-0.8193 -0.004,-0.0981 -0.008,-0.20284 -0.009,-0.2328 -0.002,-0.0408 -4.8e-4,-0.0545 0.006,-0.0545 0.005,0 0.0897,0.018 0.18913,0.0399 1.01202,0.22345 2.02962,0.50615 3.10558,0.86276 l 0.28964,0.096 -0.0255,0.0146 c -0.014,0.008 -0.29663,0.17113 -0.62803,0.36251 -0.3314,0.19138 -0.6063,0.34767 -0.61089,0.34731 -0.005,-3.6e-4 -0.0202,-0.004 -0.0348,-0.009 z"
         id="path1288" />
      <text
         xml:space="preserve"
         style="font-style:normal;font-weight:normal;font-size:17.7805px;line-height:1.25;font-family:sans-serif;fill:#000000;fill-opacity:1;stroke:none;stroke-width:0.444511"
         x="258.79559"
         y="304.26831"
         id="text920-9-1"><tspan
           sodipodi:role="line"
           id="tspan918-5-6"
           x="258.79559"
           y="304.26831"
           style="font-style:normal;font-variant:normal;font-weight:normal;font-stretch:normal;font-family:'Nexa Demo';-inkscape-font-specification:'Nexa Demo';stroke-width:0.444511">GYRO</tspan></text>
      <path
         style="opacity:1;fill:#000000;stroke:#000000;stroke-width:1.09296;stroke-linecap:round;stroke-linejoin:round;stroke-miterlimit:4;stroke-dasharray:none;stroke-opacity:1;paint-order:stroke markers fill"
         id="path1486-1"
         d="m 310.60782,304.29684 c 0.20413,-0.074 0.42041,-0.14693 0.60811,-0.25448 1.65235,-0.94705 3.04919,-2.26425 4.44857,-3.53788 0.47147,-0.46778 0.95162,-0.92696 1.4144,-1.40332 1.03168,-1.06199 2.05885,-2.20187 3.02451,-3.32197 1.1115,-1.28924 1.97603,-2.34117 3.0004,-3.69944 0.4471,-0.59284 0.87178,-1.20228 1.30766,-1.80342 1.00191,-1.47352 1.98742,-2.98546 2.62829,-4.65908 0.21527,-0.56216 0.49594,-1.48735 0.47396,-2.13004 -0.008,-0.23419 -0.11305,-0.45482 -0.1695,-0.68222 -0.15583,-0.11554 -0.2806,-0.29408 -0.4673,-0.34656 -0.52316,-0.14708 -1.20839,0.15099 -1.62181,0.39205 -0.90079,0.52535 -1.62631,1.16433 -2.32739,1.93134 -0.40952,0.44804 -0.7723,0.93665 -1.15844,1.40499 -1.59258,2.31528 -2.86374,4.82215 -4.03132,7.37183 -0.89948,1.96425 -1.60539,3.66845 -2.36102,5.68929 -0.33113,0.88561 -0.6309,1.78264 -0.94635,2.67396 -0.60516,2.13929 -1.27484,4.31275 -1.33086,6.55698 -0.0156,0.59467 0.0507,1.58269 0.36116,2.16385 0.0906,0.16954 0.27149,0.27223 0.40723,0.40835 0.19115,-0.0273 0.4014,0.006 0.57342,-0.0823 0.78431,-0.40003 1.13111,-0.86471 1.57168,-1.60018 0.49428,-0.82516 0.86261,-1.71205 1.16329,-2.62355 0.16352,-0.4957 0.2825,-1.00502 0.42375,-1.50754 0.0991,-0.50159 0.22411,-0.99874 0.29723,-1.50477 0.1871,-1.2949 0.21512,-2.64497 0.003,-3.93938 -0.12038,-0.7368 -0.21617,-0.91818 -0.45416,-1.57637 -0.0796,-0.16085 -0.15129,-0.32585 -0.23886,-0.48254 -0.0589,-0.10523 -0.1285,-0.20426 -0.19929,-0.30181 -0.0615,-0.0848 -0.14614,-0.18424 -0.16855,-0.16037 -0.37948,0.40343 -0.371,0.26753 -0.13365,0.59115 0.0865,0.0954 0.16208,0.20207 0.2597,0.28611 0.70936,0.61068 1.68597,0.98421 2.62014,1.01361 0.32861,0.0109 0.6562,-0.0418 0.98431,-0.0628 0.36357,-0.0838 0.73369,-0.14302 1.0907,-0.25142 0.84178,-0.25554 1.5622,-0.59592 2.32104,-1.04371 0.48085,-0.28374 0.95724,-0.57814 1.40616,-0.91012 0.98974,-0.73191 1.71189,-1.4936 2.5949,-2.35078 1.29296,-1.32382 2.48622,-2.74102 3.60843,-4.21138 0.49564,-0.64941 1.30089,-1.75404 1.75086,-2.47122 0.19608,-0.31254 0.36413,-0.64181 0.54619,-0.96272 0.11632,-0.26106 0.43336,-0.87229 0.46215,-1.22468 0.006,-0.0745 -0.006,-0.18472 -0.0765,-0.21066 -0.0974,-0.0361 -0.21605,0.0141 -0.30347,0.07 -0.74655,0.47797 -0.89103,0.71557 -1.4537,1.34083 -1.49353,1.79535 -2.69798,3.82523 -3.70068,5.93051 -0.2348,0.49299 -0.44622,0.9968 -0.66934,1.49519 -0.21305,0.55109 -0.43547,1.09863 -0.63914,1.65326 -0.20269,0.55201 -0.3934,1.10842 -0.57975,1.66616 -0.44387,1.32847 -0.87517,2.67717 -1.00435,4.08031 -0.0297,0.32149 -0.0141,0.64554 -0.0212,0.9683 0.13475,0.38779 0.19344,0.93809 0.70079,1.07539 0.25282,0.0684 0.52868,0.009 0.78427,-0.0482 1.12625,-0.25213 2.16159,-1.09788 3.06796,-1.74721 1.46967,-1.23706 2.70917,-2.72238 3.77595,-4.31511 0.14708,-0.21956 0.28389,-0.44584 0.42583,-0.66875 0.18993,-0.37665 0.53815,-0.87383 0.52183,-1.32752 -0.005,-0.13287 -0.0784,-0.2978 -0.2466,-0.28467 -0.10243,0.008 -0.19124,0.0754 -0.28688,0.11305 -0.24677,0.17759 -0.51242,0.33154 -0.74034,0.5328 -0.24017,0.21208 -0.79204,0.96994 -0.94035,1.19397 -0.45933,0.69383 -0.65216,1.05707 -0.94365,1.85621 -0.12413,0.34039 -0.2105,0.69339 -0.31577,1.04009 -0.13615,0.77401 -0.30976,1.66385 0.14521,2.38232 0.0996,0.15735 0.22452,0.32267 0.39685,0.39336 0.58605,0.24038 1.01066,-0.14287 1.50242,-0.38552 0.38527,-0.3021 0.79988,-0.57012 1.15582,-0.90627 1.04441,-0.98632 1.89195,-2.70989 1.91823,-4.16189 0.005,-0.28831 -0.0738,-0.57194 -0.11086,-0.85792 -0.0963,-0.22226 -0.16301,-0.45992 -0.28906,-0.6668 -0.18446,-0.30275 -0.48065,-0.55952 -0.78634,-0.73456 -0.0212,-0.0125 -0.38946,-0.19055 -0.49403,-0.141 -0.15395,0.0731 -0.27649,0.19941 -0.41473,0.29912 0.0522,0.0454 0.0943,0.10586 0.15628,0.13631 0.18311,0.0901 0.75764,0.23837 0.92419,0.26877 0.42016,0.0767 1.00738,0.12335 1.42838,0.12959 0.27589,0.005 0.55172,-0.0125 0.82759,-0.0183 1.51505,-0.11273 3.00998,-0.39416 4.49693,-0.69488 0.0457,-0.009 0.48137,-0.11023 0.59187,-0.11289 0.029,-8.2e-4 0.084,-0.003 0.0828,0.0266 -0.003,0.0617 -0.0603,0.10758 -0.0904,0.16135 -0.37977,0.67756 -0.16982,0.31363 -0.63286,1.08625 -0.46329,0.75987 -0.85886,1.56034 -1.13359,2.40859 -0.20913,0.64569 -0.3333,1.06338 -0.25356,1.74442 0.029,0.24868 0.13271,0.48285 0.19904,0.72429 0.33801,0.41342 0.43465,0.66848 0.98776,0.81279 0.50652,0.13209 1.078,4e-4 1.54648,-0.18122 0.76323,-0.29599 1.493,-0.82381 2.16778,-1.25529 1.53157,-1.11222 2.86443,-2.47339 3.99076,-3.99091 0.049,-0.0731 0.23488,-0.2219 0.14708,-0.21897 -0.42644,0.014 -0.47634,0.21561 -0.61262,0.49244 -0.077,0.15645 -0.15621,0.31197 -0.22725,0.47123 -0.2905,0.6512 -0.29923,0.72476 -0.54758,1.4298 -0.23314,0.85224 -0.41,1.73837 -0.25258,2.62384 0.0845,0.47525 0.26407,0.96769 0.6252,1.31035 0.16826,0.15965 0.39378,0.24518 0.59067,0.36778 0.25791,0.0428 0.51234,0.13288 0.77373,0.12835 0.82268,-0.014 1.5295,-0.32614 2.2466,-0.71038 0.92912,-0.49786 2.1202,-1.29369 2.94351,-1.97942 0.43171,-0.35957 0.82441,-0.76353 1.2366,-1.1453 0.35148,-0.42024 0.73353,-0.81669 1.05441,-1.26071 0.76128,-1.05345 1.36436,-2.28544 1.39885,-3.60986 0.008,-0.32895 -0.003,-0.66845 -0.10477,-0.98163 -0.0913,-0.28296 -0.30579,-0.50998 -0.45867,-0.76497 0,0 -0.0942,0.0531 -0.0942,0.0531 v 0 c 0.23134,0.76062 0.37553,1.01991 0.34725,1.84625 -0.0446,1.30677 -0.60426,2.52107 -1.35368,3.56982 -0.31522,0.44115 -0.69325,0.83383 -1.03989,1.25075 -1.23269,1.13812 -1.18992,1.18048 -2.56735,2.12897 -0.95717,0.65912 -2.06375,1.34451 -3.26905,1.36498 -0.25516,0.005 -0.504,-0.0806 -0.75601,-0.12085 -0.19629,-0.11632 -0.41913,-0.19665 -0.5889,-0.34917 -0.80469,-0.72293 -0.80028,-2.02018 -0.62372,-2.98986 0.0547,-0.30008 0.14958,-0.5914 0.22443,-0.8871 0.25582,-0.68583 0.28237,-0.81435 0.59492,-1.44603 0.0818,-0.16526 0.17172,-0.3265 0.26509,-0.48551 0.0556,-0.0946 0.28003,-0.2269 0.18126,-0.27452 -0.3055,-0.14724 -0.44206,0.19857 -0.53172,0.35936 -0.0917,0.13319 -0.17843,0.26975 -0.27502,0.39933 -1.00986,1.35488 -2.23837,2.53785 -3.60373,3.53066 -0.2303,0.15738 -0.44958,0.33229 -0.69094,0.47214 -0.69056,0.40016 -1.57633,0.84225 -2.40992,0.63788 -0.54523,-0.13365 -0.6477,-0.37644 -0.99442,-0.7728 -0.071,-0.23503 -0.18192,-0.46156 -0.21286,-0.7051 -0.0826,-0.64989 0.0525,-1.11827 0.25411,-1.7315 0.2813,-0.85559 0.69555,-1.65659 1.17152,-2.41846 0.13271,-0.21046 0.26513,-0.42108 0.39801,-0.63141 0.10523,-0.1666 0.22482,-0.3249 0.31633,-0.49942 0.0393,-0.075 0.0851,-0.15951 0.0732,-0.24337 -0.006,-0.0387 -0.0735,-0.035 -0.11273,-0.0334 -0.0952,0.005 -0.62588,0.14395 -0.64085,0.1477 -1.49982,0.35119 -3.01874,0.6434 -4.55784,0.74935 -0.27259,0.005 -0.54517,0.0201 -0.81774,0.014 -0.71656,-0.014 -1.60788,-0.0931 -2.25869,-0.43012 -0.0443,-0.023 -0.0754,-0.0656 -0.11304,-0.0985 -0.12101,0.0522 -0.26326,0.0703 -0.36305,0.1563 -0.0476,0.0411 0.12694,-0.0183 0.18852,-0.006 0.10976,0.0223 0.21853,0.0567 0.31781,0.10852 0.31394,0.16355 0.59659,0.40705 0.78831,0.70746 0.12804,0.20067 0.20134,0.43145 0.302,0.64717 0.0419,0.27975 0.12585,0.5564 0.12538,0.83924 -10e-4,1.08498 -0.4848,2.31649 -1.09471,3.19506 -0.40191,0.57896 -0.88897,1.01569 -1.38631,1.49692 -0.4647,0.23606 -0.87612,0.60575 -1.43937,0.39687 -0.17152,-0.0636 -0.30135,-0.2193 -0.40569,-0.36955 -0.47967,-0.69066 -0.3303,-1.5641 -0.19964,-2.32791 0.1057,-0.34561 0.18938,-0.69875 0.31715,-1.03682 0.35867,-0.94911 0.87461,-1.7841 1.52098,-2.56173 0.4943,-0.5947 0.51747,-0.2813 0.4688,-0.60969 0.082,-0.0426 0.15567,-0.10804 0.24601,-0.12772 0.14927,-0.0325 0.2183,0.099 0.22852,0.22042 0.037,0.44025 -0.27328,0.89929 -0.44448,1.27159 -0.13163,0.21778 -0.25728,0.43932 -0.3949,0.65337 -1.02648,1.59655 -2.26397,3.0609 -3.72078,4.28124 -0.24419,0.195 -0.47332,0.4105 -0.73255,0.585 -0.50313,0.33868 -1.19316,0.71285 -1.79877,0.85348 -0.24464,0.0568 -0.50712,0.11679 -0.75122,0.0578 -0.50895,-0.12303 -0.58735,-0.62144 -0.75131,-1.01191 -0.003,-0.31629 -0.0301,-0.63321 -0.009,-0.94883 0.0565,-0.86919 0.23539,-1.6826 0.46256,-2.52328 0.44627,-1.65132 1.04918,-3.25954 1.69852,-4.83988 0.22408,-0.4985 0.4359,-1.0027 0.67225,-1.49552 1.02336,-2.13382 2.26658,-4.17765 3.81462,-5.97262 0.21534,-0.22913 0.44033,-0.44957 0.64599,-0.68741 0.10399,-0.12023 0.19403,-0.41992 0.43649,-0.38366 0.0639,0.009 0.10039,0.10102 0.10071,0.16561 0.002,0.34137 -0.28684,0.92896 -0.38903,1.18023 -0.16782,0.31371 -0.3209,0.63579 -0.5035,0.94117 -0.44391,0.7424 -1.1681,1.76359 -1.67356,2.43577 -1.10952,1.47546 -2.30627,2.88528 -3.59827,4.20447 -1.12653,1.08263 -1.4292,1.43823 -2.65694,2.37156 -0.9787,0.74401 -2.09768,1.33729 -3.27627,1.69275 -0.35055,0.10571 -0.71415,0.16196 -1.07121,0.24293 -0.32139,0.0187 -0.64243,0.0678 -0.96416,0.0564 -0.91823,-0.0326 -1.8848,-0.39278 -2.56353,-1.0205 -0.0927,-0.0857 -0.16165,-0.19392 -0.24246,-0.29087 -0.22676,-0.36612 -0.0337,-0.21328 -0.55936,-0.12085 -0.0159,0.003 0.0192,-0.0426 0.0337,-0.0351 0.0567,0.0295 0.10227,0.0784 0.14318,0.12741 0.0765,0.0915 0.1452,0.18985 0.20743,0.29165 0.0927,0.15176 0.171,0.31188 0.2565,0.46782 0.26289,0.63766 0.36789,0.81482 0.51119,1.53634 0.25194,1.26862 0.2564,2.60727 0.0851,3.88602 -0.0676,0.50421 -0.19211,0.99914 -0.28815,1.49871 -0.14256,0.5025 -0.26075,1.01256 -0.42769,1.5075 -0.30822,0.91388 -0.70056,1.82348 -1.21726,2.64169 -0.20825,0.32977 -0.45412,0.63505 -0.70355,0.93489 -0.1132,0.13599 -0.2236,0.28897 -0.38131,0.36918 -0.17018,0.0865 -0.37466,0.0737 -0.56202,0.11056 -0.15067,-0.12164 -0.34484,-0.20377 -0.45199,-0.36511 -0.3524,-0.53045 -0.49421,-1.50704 -0.50793,-2.07787 -0.0537,-2.24028 0.6775,-4.39431 1.26363,-6.52271 0.31546,-0.8913 0.61524,-1.78831 0.94639,-2.67391 0.75554,-2.02057 1.46167,-3.72515 2.3611,-5.68913 0.85819,-1.87395 1.66887,-3.55374 2.726,-5.31629 0.42641,-0.71099 0.90928,-1.38657 1.36391,-2.07985 1.05263,-1.24097 1.17337,-1.48972 2.35407,-2.50599 0.52179,-0.4491 1.03266,-0.83424 1.71509,-0.9975 0.21938,-0.0525 0.45934,-0.0725 0.6766,-0.0125 0.17984,0.0501 0.30295,0.21831 0.45442,0.32748 0.0609,0.22076 0.16711,0.43384 0.18257,0.66232 0.0426,0.62937 -0.18796,1.51647 -0.38395,2.07802 -0.57638,1.65126 -1.51806,3.14081 -2.47804,4.589 -0.42844,0.59789 -0.84396,1.20525 -1.28533,1.79365 -0.97274,1.29683 -1.94116,2.47219 -3.00046,3.69932 -1.42059,1.64569 -2.89949,3.24288 -4.47658,4.7404 -1.09183,0.9851 -1.45232,1.34774 -2.57855,2.22839 -0.33194,0.25956 -1.21231,0.91212 -1.6751,1.17725 -0.15614,0.0895 -0.4365,0.19543 -0.62315,0.26886 0,0 -0.12178,0.0942 -0.12178,0.0942 z" />
    </g>
    <g
       id="g1028"
       style="opacity:1" />
    <g
       aria-label="GYRO"
       id="text920-9-1-2"
       style="font-style:normal;font-weight:normal;font-size:17.7805px;line-height:1.25;font-family:sans-serif;fill:#000000;fill-opacity:1;stroke:none;stroke-width:0.444511" />
  </g>
</svg>
