<svg xmlns="http://www.w3.org/2000/svg" xml:space="preserve" width="1024" height="1024" fill-rule="evenodd" clip-rule="evenodd" image-rendering="optimizeQuality" shape-rendering="geometricPrecision" text-rendering="geometricPrecision" viewBox="0 0 179840 179840"><rect width="179840" height="179840" fill="#1C1B1B" rx="25760" ry="25760"/><path fill="#fff" fill-rule="nonzero" d="M65380 63640c-650,-210 -3230,-940 -4640,-1310 -1500,-400 -3990,-1000 -4910,-1190l-180 -30 -20 -120c-40,-360 -170,-2510 -210,-3580 -20,-430 -30,-880 -40,-1020 -10,-170 0,-230 30,-230 20,0 390,80 820,170 4420,980 8870,2210 13570,3770l1260 420 -110 60c-60,40 -1300,750 -2740,1590 -1450,830 -2650,1520 -2670,1510 -20,0 -90,-10 -150,-40l-10 0 0 0zm-22060 25900c-2250,-1690 -4250,-3320 -6140,-5010l-460 -400 80 -50c860,-520 10610,-6120 10620,-6100 20,20 70,280 130,590 390,2010 1020,4880 1620,7410 120,500 210,920 200,930 -30,30 -5340,3080 -5380,3100 -30,10 -320,-210 -670,-470l0 0zm18010 11450c-1910,-1040 -5490,-3060 -5590,-3170 -10,-10 -440,-1330 -750,-2350 -3910,-12550 -6270,-24880 -6830,-35720 -90,-1840 -110,-2640 -110,-4790 0,-3280 120,-5560 430,-8210 570,-4830 1670,-8850 3280,-11990 910,-1750 1850,-3080 3040,-4270 960,-960 1840,-1620 2930,-2190 3560,-1850 7750,-1500 12280,1060 5570,3140 11670,9740 17410,18820 550,880 1320,2130 1310,2130 -50,50 -4120,2380 -4140,2380 -10,0 -130,-180 -270,-400 -750,-1240 -2140,-3340 -3030,-4620 -4190,-5980 -8460,-10480 -12380,-13040 -2150,-1410 -4160,-2220 -5990,-2440 -470,-50 -1320,-50 -1750,10 -2120,270 -3820,1520 -5220,3840 -1370,2260 -2400,5560 -2970,9530 -240,1680 -390,3330 -510,5560 -50,960 -50,5500 0,6580 200,4380 570,8030 1260,12580 1030,6770 2730,14200 4860,21300 870,2880 2160,6790 3060,9230 80,230 140,410 140,410 -10,0 -210,-100 -460,-240zm71800 -29190c9570,-580 17420,-1050 17450,-1060 60,0 -850,-1590 -8670,-15130 -4800,-8310 -8740,-15120 -8740,-15120 -10,0 -4260,6860 -9430,15230l-9420 15230 560 970 560 960 160 -10c80,-10 7980,-490 17530,-1070l0 0zm-36530 43280c-2220,-590 -4190,-1150 -6310,-1810 -990,-310 -4430,-1440 -4510,-1490 -40,-20 4760,-2810 12490,-7260 1810,-1040 18990,-10960 18990,-10970 10,0 -1000,-1760 -2240,-3910 -3100,-5360 -15740,-27260 -16760,-29020 -450,-790 -830,-1440 -840,-1440 -20,0 -6690,3850 -14830,8550 -24760,14290 -23570,13610 -23590,13590 -30,-30 -550,-2250 -900,-3910 -400,-1860 -1010,-5030 -970,-5060 10,-20 910,-540 3820,-2220 1330,-770 9990,-5760 19250,-11110 10610,-6120 16940,-9760 17120,-9840 1640,-700 3530,-320 4810,950 130,140 320,350 410,480 90,130 830,1370 1630,2770 800,1390 2060,3560 2790,4820 730,1260 1560,2710 1850,3210 290,500 540,920 550,920 20,0 4570,-7360 10130,-16360 5560,-8990 10180,-16450 10270,-16580 190,-270 630,-720 900,-920 790,-580 1680,-880 2650,-880 1430,0 2800,730 3590,1910 220,320 24770,42840 24970,43240 170,330 290,680 380,1100 90,430 90,1230 0,1670 -200,900 -580,1610 -1200,2240 -690,690 -1490,1090 -2430,1240 -150,20 -8760,550 -19150,1180 -10400,620 -18950,1150 -19020,1150l-120 20 40 90c30,50 1550,2700 3400,5890 1840,3190 3390,5900 3440,6010 150,320 270,710 330,1090 90,480 70,1240 -40,1690 -140,560 -330,1010 -660,1500 -230,350 -780,900 -1120,1130 -190,130 -18060,10460 -23820,13770 -550,320 -1830,1060 -2840,1640 -1110,640 -1860,1060 -1900,1050 -40,0 -300,-60 -560,-120l0 0zm13190 2550c-1020,-130 -2170,-290 -3100,-440 -300,-40 -600,-90 -660,-100 -150,-20 -130,100 -240,-1100 -50,-500 -120,-1110 -150,-1360 -30,-240 -40,-460 -30,-470 30,-30 4080,-2370 4130,-2380 40,-10 70,130 260,1830 150,1320 370,3730 370,3990 0,100 20,100 -580,30l0 0zm6140 8680c-14640,-600 -33750,-6250 -52080,-15410 -17440,-8720 -31860,-19460 -39620,-29500 -3300,-4270 -5330,-8380 -5940,-12040 -160,-980 -190,-1270 -190,-2430 0,-1120 20,-1360 160,-2150 390,-2140 1390,-4050 2940,-5600 990,-970 2130,-1780 3540,-2480 4150,-2080 10070,-2900 17550,-2430 590,30 1290,90 2590,200l210 20 0 660c0,740 40,2880 80,3720l10 530 -370 -30c-2950,-290 -6240,-360 -8710,-200 -5100,340 -8850,1490 -11180,3430 -300,250 -810,770 -1020,1040 -760,950 -1210,2040 -1340,3240 -50,450 -20,1520 50,2010 530,3420 2810,7450 6780,12000 1130,1290 3310,3520 4680,4790 1650,1530 3420,3050 5190,4480 8710,6990 19840,13660 31850,19110 17190,7790 34630,12290 47010,12130 2250,-30 3970,-170 5730,-460 3670,-600 6460,-1770 8160,-3420 1130,-1090 1740,-2250 1950,-3720 60,-410 70,-1380 20,-1840 -350,-3010 -2150,-6580 -5310,-10540l-400 -500 350 -350c630,-630 1080,-1250 1470,-2050 220,-450 540,-1280 540,-1410 0,-30 0,-50 20,-40 50,20 1040,1210 1610,1950 2210,2870 3790,5520 4820,8080 740,1850 1170,3510 1340,5290 50,490 50,1830 0,2300 -190,1890 -750,3520 -1730,4970 -2040,3060 -5760,5120 -11020,6080 -1370,250 -2800,420 -4580,530 -800,60 -4210,80 -5170,40l10 0zm-38760 -240c-750,-1180 -1560,-2550 -2330,-3890 -700,-1220 -1710,-3080 -1710,-3120 0,-20 100,-90 220,-160l220 -120 840 350c2810,1170 6000,2400 8940,3440 510,180 680,250 650,270 -20,20 -1450,850 -3180,1840 -1730,1000 -3190,1840 -3230,1870l-90 50 -330 -530 0 0zm-26760 15130c-500,-70 -1170,-300 -1590,-540 -720,-420 -1240,-950 -1700,-1750 -1690,-2910 -24180,-41880 -24280,-42070 -690,-1400 -570,-3070 330,-4410 220,-320 760,-860 1070,-1080 190,-120 3120,-1830 3210,-1870 30,-10 320,260 690,620 1710,1690 3530,3330 5660,5120 340,280 460,400 430,420 -10,10 -340,210 -720,430 -380,210 -710,410 -730,430 -40,30 1690,3040 19680,34190l120 210 5450 -3140c2990,-1730 5450,-3150 5450,-3150 0,0 120,220 260,480 1090,2100 2930,5370 3860,6880 80,110 140,220 140,240 -10,40 -14220,8250 -14770,8530 -640,330 -1150,460 -1880,470 -260,10 -570,0 -680,-10l0 0zm44960 11640c-820,-80 -1450,-180 -2190,-360 -4410,-1100 -9250,-4580 -14180,-10200 -6020,-6870 -11970,-16710 -17060,-28220 -180,-410 -330,-770 -350,-800 -20,-40 300,100 1400,650 1540,770 2910,1430 4310,2090l910 420 570 1150c5280,10630 11210,19230 16930,24530 1690,1570 3220,2760 4790,3700 2720,1640 5230,2310 7310,1960 2270,-390 4090,-1980 5520,-4850 1610,-3220 2590,-7880 2890,-13690 20,-340 40,-620 40,-620 0,-10 250,30 550,80 1200,190 3460,490 3660,490 40,0 80,10 90,30 20,30 -80,1530 -170,2550 -660,7080 -2410,12610 -5140,16230 -650,840 -1490,1750 -2190,2320 -1700,1410 -3470,2200 -5590,2480 -310,50 -1800,80 -2100,60l0 0z"/></svg>