<?xml version="1.0" encoding="UTF-8"?>
<!DOCTYPE svg PUBLIC "-//W3C//DTD SVG 1.1//EN" "http://www.w3.org/Graphics/SVG/1.1/DTD/svg11.dtd">
<!-- Creator: CorelDRAW 2020 (64-Bit) -->
<svg xmlns="http://www.w3.org/2000/svg" xml:space="preserve" width="1067px" height="929px" version="1.1" shape-rendering="geometricPrecision" text-rendering="geometricPrecision" image-rendering="optimizeQuality" fill-rule="evenodd" clip-rule="evenodd"
viewBox="0 0 1067000 929460"
 xmlns:xlink="http://www.w3.org/1999/xlink"
 xmlns:xodm="http://www.corel.com/coreldraw/odm/2003">
 <g id="Layer_x0020_1">
  <metadata id="CorelCorpID_0Corel-Layer"/>
  <g id="_2208949720704">
   <path fill="black" d="M846100 104200c16310,4360 11030,6090 19530,22140l47310 81910c10720,18570 57780,93000 62370,112680 -19150,0 -20600,2170 -33830,3690 -13020,1500 -28110,30 -41360,320 -19170,420 -17670,2970 -33290,4220 -13230,1060 -28230,-840 -41460,220 -15630,1240 -14130,3800 -33300,4220 -110100,2430 -100690,29290 24050,-176010 9500,-15640 26900,-40180 29980,-53390zm-175060 150050c-1540,-5800 -43490,-95870 -70850,-95870 -20090,0 -217770,120150 -233210,129410l-79390 45650c1830,22030 10670,44650 12500,66690 17020,-3970 85090,-45150 108220,-58510l179370 -104040 107030 188900c11210,20290 29410,42710 34680,65340l-86690 50850c-10460,6360 -18720,10230 -29190,16650l-87010 50540c-16350,8860 -16420,4680 -26340,19500 19860,1660 61940,20840 79190,20840 14640,0 70810,-34300 88340,-45030l126810 -73250c38050,-25440 -2540,-68700 -35930,-131790 13740,0 28220,480 41840,160 20160,-470 18890,-3550 37260,-4420l200450 -12120c22150,-4310 12640,-6090 28880,-16970 0,-38240 -20590,-65070 -46630,-107580 -18580,-30330 -33640,-58620 -52070,-89650l-62510 -108370c-22180,-40000 -26120,-57010 -55520,-57010 -24650,0 -33110,24240 -50820,53380l-112800 183120c-7360,12270 170,9360 -15610,13580z"/>
   <path fill="black" d="M0 287590c0,146870 217180,263180 329400,329140l151640 65090c35080,13670 70370,22810 109140,32580 77660,19570 301770,53580 301770,-72530 0,-28330 -9390,-48040 -19430,-68110 -6760,-13520 -8090,-17530 -16840,-29000 -7550,-9890 -14690,-15850 -17920,-27930l-8330 0c-1760,21130 -12510,17510 -12510,33340 0,4130 126910,145880 -83360,145880 -43240,0 -80440,-7370 -118440,-14930l-108290 -29250c-61150,-21260 -158130,-63100 -212640,-95800l-64950 -39240c-13370,-8930 -25910,-16550 -39960,-26730 -49050,-35550 -71130,-56610 -109100,-99300 -77970,-87660 -57340,-153220 65700,-153220l54180 0 0 -37520c-56400,0 -200060,-9640 -200060,87530z"/>
   <path fill="black" d="M366780 779410l-29170 -58350c-15830,3690 -70550,37260 -83360,45850 -4140,-15480 -64030,-112660 -75030,-133380l-56750 -97590c-2170,-3470 -7270,-12940 -7700,-16460l2000 -13470c820,-7300 -29710,-23330 -45910,-47530 -20490,10840 -50740,26330 -36520,57020l152440 264690c24920,40690 34560,82570 79200,56860l100800 -57640z"/>
   <path fill="black" d="M220900 183390c0,104610 5070,129310 24680,225400 5100,24980 21030,107200 41930,120630 15800,10150 22470,15330 37590,16580 -12580,-23780 -17100,-49090 -26560,-77630 -30250,-91230 -73670,-319390 -13560,-408460 25150,-37270 66580,-19160 93560,-810 31320,21310 36230,30120 60140,56560 6770,7500 11430,14830 18020,23660 10330,13800 26630,32070 30950,48240 57430,-4780 25220,-37150 0,-70860 -32210,-43060 -92120,-116700 -150040,-116700 -46900,0 -73030,16490 -93550,64840 -14200,33460 -23160,72950 -23160,118550z"/>
   <path fill="black" d="M571010 929460c89600,0 112540,-98100 112540,-175060l-33350 -4160c0,191430 -112530,173900 -210070,26670l-72400 -119320c-4350,-3560 -40150,-18340 -46800,-19890 15930,30090 20390,49710 44120,89260 20540,34240 26610,49810 52890,84650 9600,12730 18560,26590 29000,37690 29220,31100 76880,80160 124070,80160z"/>
   <path fill="black" d="M137540 420960l54190 45850c13840,-9270 27830,-15740 41680,-25000 -24990,-52080 9580,-82580 -46000,-50180l-49870 29330z"/>
   <path fill="black" d="M275090 250080c11290,5420 46560,13220 62070,17560 25810,7230 31950,-11510 54630,-17560 -11960,-16320 -96780,-32870 -116700,-37510l0 37510z"/>
   <path fill="black" d="M437640 737730c19520,-10330 41380,-20460 50010,-33340 -14600,-1220 -67210,-22840 -79190,-29180 2270,27310 22950,39210 29180,62520z"/>
   <path fill="black" d="M646040 641870l0 20840c9070,4350 23970,8030 37510,8330 0,-23110 -3770,-27710 -4170,-45840 -10130,2700 -23650,11540 -33340,16670z"/>
  </g>
 </g>
</svg>
