<svg xmlns="http://www.w3.org/2000/svg" xml:space="preserve" width="1644" height="394" shape-rendering="geometricPrecision" fill-rule="evenodd" clip-rule="evenodd" viewBox="0 0 1321350 316690"><path fill-rule="nonzero" d="M182000 298280c-1790-160-3160-390-4760-780-9600-2390-20110-9950-30830-22170-13070-14910-26010-36310-37070-61320-380-880-720-1660-750-1730-40-100 650 220 3030 1410 3360 1680 6320 3110 9380 4540l1980 920 1230 2490c11480 23100 24370 41790 36790 53310 3680 3420 7000 5990 10400 8040 5930 3570 11380 5030 15900 4260 4930-840 8880-4310 11990-10530 3500-7000 5640-17130 6290-29750 30-740 70-1350 80-1360s550 70 1200 170c2610 410 7510 1070 7940 1070 100 0 180 30 200 60 50 80-160 3320-370 5550-1420 15390-5230 27410-11170 35260-1400 1840-3240 3800-4750 5060-3700 3060-7550 4770-12160 5390-670 90-3910 170-4550 110zm-97710-25290c-1090-150-2550-640-3450-1170-1580-920-2700-2070-3710-3810-3670-6310-52540-91010-52750-91430-1510-3030-1240-6670 720-9570 460-690 1640-1880 2310-2340 420-280 6780-3990 6990-4070 50-20 680 550 1480 1340 3730 3670 7680 7240 12310 11130 730 610 1000 870 940 920-30 20-750 440-1580 920-820 470-1540 900-1580 940-80 70 3670 6600 42770 74300l260 460 11840-6830c6510-3760 11840-6840 11850-6840s270 480 570 1050c2370 4550 6360 11670 8390 14940 160 250 290 490 290 530-10 80-30900 17920-32080 18530-1390 720-2500 1000-4100 1030-560 10-1230 0-1470-30zm58150-32870c-1620-2580-3390-5540-5060-8470-1520-2650-3720-6680-3720-6780 0-30 220-180 480-330l470-270 1830 770c6100 2540 13050 5210 19430 7460 1120 390 1470 540 1410 590-40 40-3150 1850-6910 4010-3760 2170-6920 3990-7020 4050l-190 120-720-1150zm84230 520c-31820-1300-73350-13590-113180-33500-37890-18940-69230-42280-86100-64110-7160-9270-11570-18200-12900-26160-360-2130-410-2760-410-5280 0-2430 40-2960 350-4670 830-4660 3010-8810 6380-12170 2140-2120 4630-3880 7690-5400 9020-4510 21890-6290 38140-5280 1290 70 2810 200 5630 440l460 40v1450c0 1590 90 6240 160 8070l40 1160-810-70c-6420-630-13570-790-18930-430-11080 730-19230 3230-24290 7460-650 540-1760 1660-2230 2250-1650 2060-2630 4430-2910 7050-110 980-50 3300 110 4360 1150 7430 6110 16200 14740 26080 2450 2800 7180 7640 10160 10410 3590 3320 7430 6630 11290 9730 18930 15190 43120 29700 69210 41530 37350 16940 75260 26720 102160 26360 4890-60 8640-360 12450-990 7990-1310 14040-3850 17750-7440 2440-2360 3760-4890 4230-8090 130-890 150-2990 30-3990-760-6540-4660-14300-11530-22910l-870-1090 760-760c1380-1370 2340-2710 3200-4450 480-970 1160-2770 1160-3060 0-70 20-110 50-100 120 50 2260 2640 3500 4250 4800 6240 8240 12000 10470 17560 1620 4020 2540 7630 2910 11500 110 1050 110 3980 0 4990-410 4110-1630 7650-3740 10810-4440 6650-12520 11110-23950 13200-2980 550-6090 910-9960 1160-1740 120-9150 170-11230 90h10zm-13330-18870c-2220-280-4720-630-6740-950-650-100-1310-200-1450-220-320-50-270 210-520-2400-110-1090-250-2410-310-2950-70-530-100-990-80-1010 70-80 8880-5150 8980-5180s150 270 560 3970c330 2870 820 8100 820 8670 0 230 40 230-1260 70zm-28680-5550c-4820-1270-9090-2490-13700-3920-2160-680-9630-3140-9810-3240-80-50 10340-6110 27140-15780 3940-2270 41270-23820 41280-23830s-2180-3840-4880-8500c-6730-11650-34200-59240-36410-63080-990-1710-1820-3120-1840-3120-30 0-14530 8360-32230 18580-53790 31060-51220 29580-51260 29540-70-70-1180-4890-1950-8500-860-4050-2190-10930-2120-11000 40-40 1980-1170 8320-4830 2880-1660 21700-12520 41820-24140 23060-13310 36810-21210 37210-21380 3570-1520 7680-710 10450 2070 290 290 690 760 890 1040s1800 2980 3540 6010c1750 3020 4480 7740 6070 10480 1580 2740 3390 5880 4030 6970 630 1100 1170 2000 1190 2000 30 0 9930-15990 22010-35540 12080-19540 22120-35750 22310-36030 420-600 1380-1580 1970-2020 1710-1260 3640-1900 5760-1900 3110 0 6080 1580 7790 4140 480 710 53840 93110 54270 93980 360 710 620 1480 820 2380 200 950 200 2690 0 3640-420 1950-1250 3490-2610 4860-1500 1500-3220 2370-5280 2690-310 50-19040 1200-41620 2570-22590 1360-41180 2500-41330 2510l-260 40 100 200c50 110 3370 5870 7380 12800 4000 6930 7360 12810 7480 13060 320 690 580 1540 720 2370 180 1040 140 2690-100 3670-290 1210-710 2180-1420 3260-500 750-1710 1960-2440 2450-410 280-39250 22730-51760 29920-1200 700-3980 2300-6170 3570-2420 1390-4050 2300-4140 2290-90 0-640-130-1220-280zm79400-94040c20780-1260 37840-2290 37920-2300 120-20-1850-3470-18840-32880-10440-18080-18990-32870-19010-32870s-9240 14900-20490 33100l-20460 33100 1210 2100 1210 2100 350-30c190-20 17340-1060 38110-2320zm-156040 63440c-4160-2270-11930-6670-12150-6890-30-30-960-2900-1640-5110-8490-27280-13610-54070-14830-77640-200-3990-250-5740-250-10410 0-7120 270-12080 940-17840 1240-10500 3630-19220 7140-26050 1960-3800 4010-6690 6590-9280 2090-2090 4010-3520 6380-4760 7740-4030 16830-3250 26690 2310 12090 6810 25350 21150 37820 40890 1210 1910 2870 4630 2850 4640-110 90-8960 5170-8990 5170s-290-390-580-870c-1650-2700-4650-7270-6600-10040-9110-13010-18370-22770-26910-28350-4670-3050-9020-4820-13000-5290-1030-120-2870-120-3820 10-4590 590-8280 3310-11340 8360-2960 4900-5200 12080-6450 20710-520 3640-850 7220-1110 12080-110 2080-110 11940 0 14300 440 9520 1240 17450 2750 27330 2240 14710 5930 30870 10560 46300 1880 6250 4690 14740 6640 20060 170 480 310 870 300 880s-450-220-990-510zm-39150-24890c-4880-3680-9220-7230-13340-10890l-990-870 170-110c1880-1140 23060-13290 23090-13250 30 30 150 600 280 1280 830 4360 2200 10610 3520 16100 260 1080 450 1990 420 2010-60 70-11590 6700-11690 6740-50 20-700-440-1460-1010zm47960-56290c-1420-460-7040-2050-10090-2850-3270-860-8670-2170-10680-2580l-390-70-30-260c-90-780-380-5450-470-7780-30-930-70-1920-80-2210-20-380-10-510 60-510 40 0 850 170 1790 370 9610 2130 19270 4810 29480 8200l2750 910-240 140c-130 70-2820 1620-5960 3440-3150 1810-5760 3300-5800 3290-50 0-190-30-330-80l-10-10zm343160 22260c-12160-11990-28020-17900-43720-17900-40340 0-62110 29030-62110 63130 0 31390 18730 60250 62110 60250 19920 0 34600-7590 46420-20590v-48440h-50470v16880h32910v23970c-9450 7930-18730 10460-28860 10460-30720 0-43540-20930-43540-42530-170-24980 15860-45740 43540-45740 10970 0 23460 4390 31900 12660l11820-12150zm32910-15200h-22450v850l45570 68950v48520h18900v-48520l46930-68950v-850h-22790l-33590 52240-32570-52240zm205410 114950-35280-39330c23290-3380 32070-19920 32070-36800 0-19910-14350-38650-41690-38650-18400 0-36620-170-55020-170v118320h18900v-40840h24980l35950 40840h22110l-2020-3370zm-44900-97560c15530 0 22450 11140 22450 21770 0 11140-6920 21100-22620 21100h-35950v-42870h36120zm120170-19410c-35610 0-60760 25990-60760 61940 0 31060 19410 60930 60430 60930 41010 0 60420-29200 60420-61100s-19750-61600-60090-61770zm-42020 62110c0-25820 14680-44890 42020-44890 28870 500 41360 23120 41360 44890 0 22620-12330 43380-41690 43380-29200 0-41360-22450-41690-43380zm360280-16010c20 100 40 190 50 290 400 3070 1150 5820 1100 8980-280 15300-8940 33110-19990 43550-3550 3340-7560 5950-11370 8940-330 260-630 450-1000 630-3410 1690-6070 3720-9940 4590-3070 700-6080 430-9000-770-2860-1170-4810-3410-6420-5960-1130-1780-1960-3640-2530-5560-740 650-1480 1280-2230 1910-120 110-230 190-350 280-9600 6870-19410 14870-31200 17510-3420 770-6700 1340-10180 400-2530-690-4680-2070-6340-4100-2570-3140-2950-6150-4200-9740-240-670-330-1280-320-1990 70-3210-70-6390 230-9590 1270-13790 5430-26950 9800-40020 800-2400 1610-4790 2440-7180-2650 2310-5380 4550-8270 6690-4420 3270-9100 6170-13840 8960-7480 4420-14940 7930-23270 10460-3540 1070-7140 1660-10730 2480-320 80-590 120-920 140-3320 210-6540 710-9890 600-3470-110-6960-650-10350-1570 50 310 110 620 160 940 2110 12880 1850 26240-10 39130-710 4910-1910 9710-2870 14580-30 150-70 280-110 430-1360 4860-2510 9760-4100 14560-2980 9050-6660 17860-11560 26040-4750 7930-8790 13040-17220 17340-2800 1430-4470 960-7230 1350-1830 260-3530-310-4830-1620-1880-1880-3470-2610-4860-5210-3400-6360-4280-16220-4100-23370 430-16930 4350-33280 8840-49480-5770 4540-11790 8770-18200 12450-2130 1220-4370 2000-6660 2830-1550 560-3100 460-4560-300-1470-760-2440-1970-2880-3560v-10c-620-2270 150-4560 2010-6000l1160-900c450-340 870-590 1400-790 1610-640 3680-1350 5170-2200 5010-2870 10640-7130 15220-10720 4660-3640 9130-7340 13540-11270 2270-6520 4520-13060 6940-19530 6900-18450 14370-36470 22570-54380 11220-24500 23450-48600 38750-70840 100-140 190-260 300-400 3730-4520 7230-9220 11190-13550 7000-7660 14430-14170 23420-19410 5650-3300 13270-6130 19810-4290 3210 900 3970 2480 6290 4200 1100 820 1800 1870 2130 3200 670 2710 1680 4720 1780 7660 230 6920-2400 15980-4880 22450-6250 16330-15770 31000-25550 45390-40 50-70 90-100 140-4160 5740-8210 11550-12480 17210-9190 12180-18750 23850-28720 35400-5500 6380-11080 12690-16770 18890 3320 1210 6850 1900 10300 2030 2680 90 5460-320 8150-500 3100-690 6290-1190 9330-2110 10540-3180 20540-8490 29300-15150 4300-3270 8460-6610 12430-10260 4180-3840 8200-7890 12170-11700 850-870 1690-1740 2530-2610 1920-4340 3780-8700 5820-12990 9720-20420 21400-40070 35890-57490 50-60 90-110 140-170 5390-5980 7950-9220 14970-13710 2350-1510 5210-2210 7920-1210 3280 1210 4700 4520 4430 7800-360 4470-3040 9410-4860 13490-80 170-150 320-250 490-1770 3120-3400 6310-5310 9350-5100 8120-11100 16260-16920 23890-9580 12560-19710 24710-30570 36190-5980 14610-11530 29450-15660 44700-2030 7530-3690 15040-4200 22840-170 2510 20 5080 80 7620 630 1860 1630 4800 2790 5080 1130 280 3380-300 4500-560 5060-1170 10910-4390 15190-7280 2310-1550 4400-3530 6480-5190 4030-3380 7890-6980 11570-10750 230-1500 500-2990 760-4480 50-240 90-440 160-670 1040-3400 1880-6830 3100-10170 2700-7400 5230-12270 9560-18820 2400-3620 6750-9670 9910-12460 2010-1770 4220-3150 6390-4650 400-880 1030-1630 1860-2240 1690-1210 2860-2430 4830-3360 2960-1410 7220-30 9970 1540 1500 860 2930 1860 4260 2980 3570 630 7260 860 10860 940 2460 50 4930-80 7390-130 14250-1000 28330-3720 42150-6950 2060-520 5140-1470 7180-1570 3360-160 6460 1600 6980 5190 320 2170-300 3900-1280 5780-960 1810-2150 3410-3240 5130-1250 1990-2510 3980-3760 5980-4280 6830-8020 14040-10540 21710-1600 4870-2830 8760-2170 13940 170 1380 870 3070 1420 4580 1720 2150 2760 3910 5740 4640 6090 1490 13580-2500 18670-5450 2150-1250 4150-2850 6060-4160 12500-9090 23750-19920 33000-32320 560-760 1090-1550 1620-2340 930-1910 1680-3500 3320-4910 1850-1870 4270-2820 6860-2530 120-10 240-10 360-10 4140-140 6680 3470 5970 7000-220 1870-1390 3420-2840 4780-40 30-70 60-110 100-730 1260-1440 2540-2090 3860-2210 4450-3600 8300-5310 12900-670 2570-1500 5130-1970 7740-1290 7060-1760 17840 4120 23120 820 730 2430 1470 3710 2130 1690 350 3660 900 5150 880 10070-180 19870-6420 27900-11960 4140-2850 8370-5750 12190-9020 3850-3310 7550-6970 11280-10430 3130-3730 6550-7290 9370-11250 6450-9020 11410-19530 11800-30770 220-6620-1180-9510-3060-15680-780-2580 300-5290 2660-6610l890-510c2690-1510 6100-610 7680 2030 1780 2960 3770 4970 4890 8440 1180 3640 1370 7420 1270 11220-350 13760-6420 26480-14360 37460-3140 4340-6820 8180-10250 12280-170 200-320 360-500 530-3990 3690-7780 7580-11970 11070-8500 7090-19130 14200-28890 19430-7640 4090-15110 7270-23920 7420-3070 50-5470-810-8380-1290-770-130-1410-370-2070-790-2330-1450-4430-2210-6520-4190-4340-4120-6600-9790-7620-15580-970-5410-790-10790 20-16110-4700 4290-9630 8320-14780 12060-100 70-180 130-280 190-7000 4470-13790 9400-21590 12430-5680 2200-12160 3490-18170 1920-6860-1790-8290-4650-12350-9620-530-650-870-1300-1090-2100-720-2650-1720-4920-2050-7720-860-7330 430-12120 2650-18980 2740-8470 6700-16450 11300-24050 280-460 550-920 820-1370-12490 2450-25040 4620-37750 5570-110 0-200 10-300 10-2450 50-4900 190-7360 180zM873460 286710c560-70 1050-140 1300-230 430-270 1510-1680 1840-2080 2210-2650 4400-5360 6240-8280 4670-7390 8190-15580 10980-23850 1520-4530 2610-9210 3910-13810 880-4550 2020-9080 2630-13670 1550-11530 1530-23580-750-35020-30-180-70-350-100-530-3010 2990-6060 5940-9070 8920-60 70-110 120-180 170-2990 2730-5970 5460-8970 8170-310 900-630 1790-950 2690-5370 19490-12220 39630-11730 60080 110 4590 1290 12830 3800 16620 210 230 600 510 1050 820zm32840-121210c6040-6520 11950-13160 17760-19890 9780-11320 19260-22840 28240-34810 4150-5520 8050-11220 12070-16840 8810-13300 17550-27060 22830-42210 1680-4790 3690-12380 3340-17460-60-900-530-2220-960-3420-400-360-780-700-1110-920-1050-220-2390-20-3390 220-5460 1300-9710 4650-13890 8240-3800 3270-7490 6590-10850 10310-3670 4040-7110 8400-10640 12580-4220 6410-8690 12670-12630 19260-9690 16140-17760 32810-25590 49910-4180 9130-8170 18300-11990 27540 1520 550 2860 1720 3900 3070 140 170 270 360 410 540 800 1110 1580 2230 2250 3420 80 160 170 310 250 460zm-13230 8500c-1110 2860-2200 5730-3290 8600 1880-1860 3750-3740 5600-5630-60-150-120-290-180-440-110-210-230-420-340-630-670-610-1230-1240-1790-1900zm182600-18360c-1110 2520-2580 4900-3860 7440-90 180-170 330-280 490-1370 2160-2690 4340-4110 6460-6490 9690-13630 18960-21570 27500-270 3540-40 7290 2020 10260 250 350 880 1240 1150 1410 2310 860 5850-1630 8270-3040 4210-4050 8550-8010 11900-12840 5140-7400 9360-17990 9370-27090 10-1960-610-4250-990-6300-600-1420-1160-3000-1900-4290z"/></svg>